<svg xmlns="http://www.w3.org/2000/svg" xmlns:xlink="http://www.w3.org/1999/xlink" width="220" zoomAndPan="magnify" viewBox="0 0 165 82.499998" height="110" preserveAspectRatio="xMidYMid meet" version="1.0"><defs><clipPath id="89dfac3736"><path d="M 0.496094 0 L 164.503906 0 L 164.503906 82.003906 L 0.496094 82.003906 Z M 0.496094 0 " clip-rule="nonzero"/></clipPath></defs><g clip-path="url(#89dfac3736)"><path fill="#ffffff" d="M 0.496094 0 L 164.503906 0 L 164.503906 89.457031 L 0.496094 89.457031 Z M 0.496094 0 " fill-opacity="1" fill-rule="nonzero"/><path fill="#ffffff" d="M 0.496094 0 L 164.503906 0 L 164.503906 82.003906 L 0.496094 82.003906 Z M 0.496094 0 " fill-opacity="1" fill-rule="nonzero"/><path fill="#ffffff" d="M 0.496094 0 L 164.503906 0 L 164.503906 82.003906 L 0.496094 82.003906 Z M 0.496094 0 " fill-opacity="1" fill-rule="nonzero"/></g><path fill="#000000" d="M 155.589844 41.40625 L 155.589844 33.355469 L 153.609375 33.355469 L 150.644531 40.335938 L 147.976562 33.355469 L 145.882812 33.355469 L 145.882812 41.40625 L 147.289062 41.40625 L 147.289062 36.039062 L 147.199219 34.96875 L 149.625 41.40625 L 151.574219 41.40625 L 154.269531 34.96875 L 154.210938 36.191406 L 154.210938 41.40625 Z M 141.566406 35.980469 C 141.566406 37.085938 140.847656 37.472656 139.589844 37.472656 L 138.628906 37.472656 L 138.628906 34.519531 L 139.890625 34.519531 C 141.085938 34.519531 141.566406 34.90625 141.566406 35.980469 M 144.382812 40.394531 C 143.605469 40.183594 143.035156 39.796875 142.554688 39.261719 C 142.554688 39.261719 141.894531 38.574219 141.597656 38.246094 C 142.617188 37.769531 143.09375 36.933594 143.09375 35.953125 C 143.09375 34.132812 141.894531 33.328125 140.128906 33.328125 L 137.164062 33.328125 L 137.164062 41.378906 L 138.628906 41.378906 L 138.628906 38.605469 L 139.53125 38.605469 C 139.738281 38.605469 139.917969 38.605469 140.097656 38.574219 C 140.21875 38.695312 141.566406 40.214844 141.566406 40.214844 C 142.4375 41.199219 143.304688 41.496094 144.113281 41.527344 Z M 132.96875 37.742188 L 130.480469 37.742188 L 131.5 35.175781 L 131.828125 34.25 L 132.128906 35.175781 Z M 135.816406 41.40625 L 132.9375 33.355469 L 130.839844 33.355469 L 127.515625 41.40625 L 129.015625 41.40625 L 130.03125 38.902344 L 133.417969 38.902344 L 134.316406 41.40625 Z M 127.335938 34.519531 L 127.335938 33.328125 L 121.554688 33.328125 L 121.554688 41.378906 L 123.023438 41.378906 L 123.023438 38.515625 L 127.035156 38.515625 L 127.035156 37.351562 L 123.023438 37.351562 L 123.023438 34.519531 Z M 119.605469 41.40625 L 119.605469 40.214844 L 115.140625 40.214844 L 115.140625 37.949219 L 118.976562 37.949219 L 118.976562 36.757812 L 115.140625 36.757812 L 115.140625 34.550781 L 119.277344 34.550781 L 119.277344 33.355469 L 113.675781 33.355469 L 113.675781 41.40625 Z M 112.234375 41.40625 L 112.234375 40.183594 L 107.953125 40.183594 L 107.953125 33.328125 L 106.484375 33.328125 L 106.484375 41.378906 Z M 102.976562 39.023438 C 102.976562 39.945312 102.320312 40.214844 101.179688 40.214844 L 99.324219 40.214844 L 99.324219 37.742188 L 100.851562 37.742188 C 102.320312 37.769531 102.976562 38.070312 102.976562 39.023438 M 102.410156 35.652344 C 102.410156 36.339844 102.109375 36.726562 100.910156 36.726562 L 99.324219 36.726562 L 99.324219 34.488281 L 100.820312 34.488281 C 101.988281 34.460938 102.410156 34.847656 102.410156 35.652344 M 104.476562 39.023438 C 104.476562 37.742188 103.578125 37.234375 103.039062 37.054688 C 103.398438 36.816406 103.90625 36.429688 103.90625 35.503906 C 103.90625 34.101562 102.949219 33.355469 101.0625 33.355469 L 97.886719 33.355469 L 97.886719 41.40625 L 101.421875 41.40625 C 103.667969 41.40625 104.476562 40.425781 104.476562 39.023438 M 95.636719 33.328125 L 94.171875 33.328125 L 94.171875 41.378906 L 95.636719 41.378906 Z M 92.371094 39.171875 C 92.371094 36.695312 87.847656 36.816406 87.847656 35.324219 C 87.847656 34.699219 88.449219 34.429688 89.4375 34.429688 C 90.425781 34.429688 91.023438 34.640625 91.652344 34.816406 L 92.042969 33.683594 C 91.292969 33.386719 90.664062 33.207031 89.40625 33.207031 C 87.789062 33.207031 86.351562 33.835938 86.351562 35.324219 C 86.351562 38.128906 90.84375 37.769531 90.84375 39.261719 C 90.84375 40.125 90.035156 40.363281 88.957031 40.363281 C 88.027344 40.363281 87.25 40.15625 86.410156 39.828125 L 85.960938 40.992188 C 86.441406 41.257812 87.460938 41.617188 88.988281 41.617188 C 90.664062 41.617188 92.371094 41.019531 92.371094 39.171875 M 84.285156 33.328125 L 82.816406 33.328125 L 82.816406 41.378906 L 84.285156 41.378906 Z M 81.378906 33.328125 L 79.878906 33.328125 L 77.601562 39.082031 L 77.035156 40.542969 L 76.582031 39.140625 L 74.636719 33.328125 L 73.046875 33.328125 L 75.863281 41.378906 L 78.113281 41.378906 Z M 71.640625 41.40625 L 71.640625 33.355469 L 70.171875 33.355469 L 70.171875 38.722656 L 70.230469 40.066406 L 66.15625 33.355469 L 64.121094 33.355469 L 64.121094 41.40625 L 65.589844 41.40625 L 65.589844 36.101562 L 65.527344 34.9375 L 69.542969 41.40625 Z M 61.875 33.328125 L 60.40625 33.328125 L 60.40625 41.378906 L 61.875 41.378906 Z M 61.875 33.328125 " fill-opacity="1" fill-rule="nonzero"/><path fill="#000000" d="M 135.003906 48.652344 L 135.003906 48.386719 L 133.296875 48.386719 L 133.296875 47.3125 L 134.796875 47.3125 L 134.796875 47.042969 L 133.296875 47.042969 L 133.296875 46 L 134.886719 46 L 134.886719 45.703125 L 132.96875 45.703125 L 132.96875 48.625 Z M 132.25 46 L 132.25 45.703125 L 129.671875 45.703125 L 129.671875 46 L 130.8125 46 L 130.8125 48.652344 L 131.109375 48.652344 L 131.109375 46 Z M 128.921875 48.652344 L 128.921875 45.703125 L 128.59375 45.703125 L 128.59375 48.148438 L 128.625 48.414062 L 126.796875 45.730469 L 126.347656 45.730469 L 126.347656 48.652344 L 126.648438 48.652344 L 126.648438 46 L 128.414062 48.652344 Z M 125.417969 48.652344 L 125.417969 48.386719 L 123.710938 48.386719 L 123.710938 47.3125 L 125.207031 47.3125 L 125.207031 47.042969 L 123.710938 47.042969 L 123.710938 46 L 125.296875 46 L 125.296875 45.703125 L 123.382812 45.703125 L 123.382812 48.625 Z M 121.824219 46.625 C 121.824219 47.101562 121.464844 47.28125 121.015625 47.28125 L 120.476562 47.28125 L 120.476562 45.96875 L 121.132812 45.96875 C 121.613281 45.96875 121.824219 46.179688 121.824219 46.625 M 122.632812 48.414062 C 122.363281 48.324219 122.121094 48.148438 121.941406 47.9375 L 121.492188 47.460938 C 121.941406 47.3125 122.121094 46.984375 122.121094 46.597656 C 122.121094 46 121.761719 45.703125 121.195312 45.703125 L 120.144531 45.703125 L 120.144531 48.625 L 120.445312 48.625 L 120.445312 47.519531 L 120.953125 47.519531 C 121.015625 47.519531 121.074219 47.519531 121.164062 47.519531 L 121.792969 48.207031 C 122.09375 48.535156 122.363281 48.625 122.574219 48.652344 Z M 118.617188 47.28125 L 117.570312 47.28125 L 118.136719 45.851562 Z M 119.425781 48.652344 L 118.378906 45.730469 L 117.867188 45.730469 L 116.671875 48.652344 L 117 48.652344 L 117.417969 47.582031 L 118.675781 47.582031 L 119.035156 48.652344 Z M 116.550781 46.597656 C 116.550781 46 116.191406 45.703125 115.621094 45.703125 L 114.574219 45.703125 L 114.574219 48.625 L 114.871094 48.625 L 114.871094 45.96875 L 115.53125 45.96875 C 116.011719 45.96875 116.222656 46.148438 116.222656 46.625 C 116.222656 47.101562 115.890625 47.28125 115.410156 47.28125 L 115.320312 47.28125 L 115.320312 47.550781 L 115.382812 47.550781 C 116.191406 47.550781 116.550781 47.132812 116.550781 46.597656 M 113.644531 47.847656 C 113.644531 47.3125 112.957031 47.132812 112.535156 46.925781 C 112.296875 46.835938 111.996094 46.6875 111.996094 46.386719 C 111.996094 46.058594 112.324219 45.96875 112.683594 45.96875 C 112.984375 45.96875 113.164062 46.03125 113.433594 46.089844 L 113.523438 45.851562 C 113.316406 45.761719 113.074219 45.703125 112.65625 45.703125 C 112.085938 45.703125 111.667969 45.910156 111.667969 46.417969 C 111.667969 47.015625 112.324219 47.191406 112.777344 47.371094 C 112.984375 47.460938 113.316406 47.609375 113.316406 47.878906 C 113.316406 48.324219 112.894531 48.386719 112.535156 48.386719 C 112.207031 48.386719 111.90625 48.296875 111.636719 48.175781 L 111.515625 48.445312 C 111.667969 48.503906 112.027344 48.652344 112.535156 48.652344 C 113.136719 48.652344 113.644531 48.476562 113.644531 47.847656 M 110.199219 47.28125 L 109.148438 47.28125 L 109.71875 45.851562 Z M 111.007812 48.652344 L 109.988281 45.730469 L 109.480469 45.730469 L 108.28125 48.652344 L 108.609375 48.652344 L 109.03125 47.582031 L 110.289062 47.582031 L 110.648438 48.652344 Z M 107.023438 46.625 C 107.023438 47.101562 106.664062 47.28125 106.214844 47.28125 L 105.675781 47.28125 L 105.675781 45.96875 L 106.335938 45.96875 C 106.8125 45.96875 107.023438 46.179688 107.023438 46.625 M 107.832031 48.414062 C 107.5625 48.324219 107.324219 48.148438 107.144531 47.9375 L 106.695312 47.460938 C 107.144531 47.3125 107.324219 46.984375 107.324219 46.597656 C 107.324219 46 106.964844 45.703125 106.394531 45.703125 L 105.375 45.703125 L 105.375 48.625 L 105.675781 48.625 L 105.675781 47.519531 L 106.183594 47.519531 C 106.246094 47.519531 106.304688 47.519531 106.363281 47.519531 L 106.992188 48.207031 C 107.292969 48.535156 107.5625 48.625 107.773438 48.652344 Z M 104.625 46 L 104.625 45.703125 L 102.050781 45.703125 L 102.050781 46 L 103.1875 46 L 103.1875 48.652344 L 103.488281 48.652344 L 103.488281 46 Z M 100.3125 48.652344 L 100.3125 48.386719 L 98.605469 48.386719 L 98.605469 47.3125 L 100.101562 47.3125 L 100.101562 47.042969 L 98.605469 47.042969 L 98.605469 46 L 100.191406 46 L 100.191406 45.703125 L 98.273438 45.703125 L 98.273438 48.625 Z M 99.742188 45.105469 L 98.785156 44.390625 L 98.605469 44.628906 L 99.5625 45.3125 Z M 95.816406 48.652344 L 95.816406 48.386719 L 94.109375 48.386719 L 94.109375 47.3125 L 95.609375 47.3125 L 95.609375 47.042969 L 94.109375 47.042969 L 94.109375 46 L 95.699219 46 L 95.699219 45.703125 L 93.78125 45.703125 L 93.78125 48.625 Z M 92.613281 48.652344 L 92.613281 45.703125 L 92.28125 45.703125 L 92.28125 48.148438 L 92.3125 48.414062 L 90.484375 45.730469 L 90.035156 45.730469 L 90.035156 48.652344 L 90.335938 48.652344 L 90.335938 46.148438 L 90.304688 46 L 92.074219 48.652344 Z M 88.777344 47.164062 C 88.777344 47.878906 88.386719 48.386719 87.578125 48.386719 C 86.832031 48.386719 86.441406 47.820312 86.441406 47.132812 C 86.441406 46.449219 86.859375 45.910156 87.609375 45.910156 C 88.359375 45.941406 88.777344 46.476562 88.777344 47.164062 M 89.105469 47.164062 C 89.105469 46.328125 88.597656 45.640625 87.667969 45.640625 C 86.769531 45.640625 86.140625 46.238281 86.140625 47.132812 C 86.140625 48.027344 86.679688 48.625 87.578125 48.625 C 88.507812 48.683594 89.105469 48.058594 89.105469 47.164062 M 85.183594 45.703125 L 84.882812 45.703125 L 84.882812 48.625 L 85.183594 48.625 Z M 84.042969 48.652344 L 84.042969 48.386719 L 82.15625 48.386719 L 83.984375 46 L 83.984375 45.703125 L 81.945312 45.703125 L 81.945312 45.96875 L 83.65625 45.96875 L 81.855469 48.355469 L 81.855469 48.625 L 84.042969 48.625 Z M 80.449219 47.28125 L 79.398438 47.28125 L 79.96875 45.851562 Z M 81.257812 48.652344 L 80.238281 45.730469 L 79.730469 45.730469 L 78.53125 48.652344 L 78.859375 48.652344 L 79.28125 47.582031 L 80.539062 47.582031 L 80.898438 48.652344 Z M 78.441406 45.703125 L 78.113281 45.703125 L 77.003906 48.476562 L 76.042969 45.703125 L 75.714844 45.703125 L 76.734375 48.625 L 77.242188 48.625 Z M 74.964844 47.164062 C 74.964844 47.878906 74.578125 48.386719 73.769531 48.386719 C 73.019531 48.386719 72.628906 47.820312 72.628906 47.132812 C 72.628906 46.449219 73.046875 45.910156 73.796875 45.910156 C 74.546875 45.941406 74.964844 46.476562 74.964844 47.164062 M 75.296875 47.164062 C 75.296875 46.328125 74.785156 45.640625 73.859375 45.640625 C 72.957031 45.640625 72.328125 46.238281 72.328125 47.132812 C 72.328125 48.027344 72.867188 48.625 73.769531 48.625 C 74.695312 48.683594 75.296875 48.058594 75.296875 47.164062 M 71.371094 48.652344 L 71.371094 45.703125 L 71.042969 45.703125 L 71.042969 48.414062 L 69.214844 45.730469 L 68.765625 45.730469 L 68.765625 48.652344 L 69.0625 48.652344 L 69.0625 46.148438 L 69.035156 46 L 70.800781 48.652344 Z M 67.625 48.652344 L 67.625 45.703125 L 67.296875 45.703125 L 67.296875 48.148438 L 67.328125 48.414062 L 65.5 45.730469 L 65.050781 45.730469 L 65.050781 48.652344 L 65.347656 48.652344 L 65.347656 46 L 67.117188 48.652344 Z M 63.851562 45.703125 L 63.550781 45.703125 L 63.550781 48.625 L 63.851562 48.625 Z M 62.800781 44.71875 L 62.800781 44.597656 L 62.503906 44.597656 L 62.503906 45.046875 C 62.503906 45.285156 62.414062 45.464844 62.351562 45.582031 L 62.621094 45.582031 C 62.710938 45.375 62.800781 45.164062 62.800781 44.71875 M 62.621094 48.652344 L 62.621094 48.386719 L 60.914062 48.386719 L 60.914062 45.703125 L 60.613281 45.703125 L 60.613281 48.625 L 62.621094 48.625 Z M 62.621094 48.652344 " fill-opacity="1" fill-rule="nonzero"/><path fill="#000000" d="M 32.152344 41.945312 C 31.492188 41.40625 30.835938 40.902344 30.175781 40.453125 L 30.265625 40.484375 C 31.105469 35.414062 34.757812 32.402344 35.148438 32.105469 C 35.179688 32.105469 35.210938 32.105469 35.238281 32.074219 C 36.4375 31.835938 37.546875 31.6875 38.535156 31.566406 C 37.933594 32.105469 37.1875 32.878906 36.378906 33.835938 C 34.878906 35.625 32.992188 38.425781 32.152344 41.945312 M 27.480469 38.722656 C 27.988281 35.863281 29.847656 33.773438 30.207031 33.386719 C 31.222656 33.027344 32.273438 32.730469 33.230469 32.492188 C 32.933594 32.820312 32.601562 33.179688 32.273438 33.59375 C 31.222656 34.9375 29.90625 37.085938 29.335938 39.859375 C 28.738281 39.46875 28.109375 39.082031 27.480469 38.722656 M 23.855469 36.875 C 25.171875 35.742188 26.730469 34.847656 28.347656 34.132812 C 27.6875 35.117188 26.910156 36.519531 26.582031 38.21875 C 25.621094 37.710938 24.722656 37.261719 23.855469 36.875 M 35.929688 43.613281 C 37.066406 43.285156 38.265625 42.988281 39.582031 42.75 L 39.582031 42.78125 C 39.613281 42.78125 41.441406 43.347656 43.746094 44.628906 C 44.4375 45.015625 45.246094 45.492188 46.054688 46.089844 L 46.054688 44.867188 C 45.394531 44.417969 44.765625 44.0625 44.226562 43.734375 C 43.238281 43.195312 42.339844 42.78125 41.621094 42.453125 C 43 42.300781 44.464844 42.183594 46.054688 42.152344 L 46.054688 41.167969 C 44.257812 41.199219 42.519531 41.347656 40.902344 41.558594 C 41.800781 39.769531 42.9375 38.574219 44.105469 37.800781 L 43.597656 36.933594 C 43.566406 36.964844 43.539062 36.996094 43.476562 36.996094 C 41.832031 38.128906 40.570312 39.707031 39.734375 41.707031 C 38.65625 41.886719 37.636719 42.09375 36.675781 42.363281 C 37.394531 39.558594 38.984375 37.144531 41.382812 35.175781 C 41.652344 34.9375 41.949219 34.730469 42.21875 34.550781 L 41.710938 33.683594 C 41.410156 33.894531 41.109375 34.132812 40.78125 34.402344 C 38.863281 35.953125 36.4375 38.636719 35.570312 42.691406 C 34.941406 42.871094 34.339844 43.078125 33.742188 43.316406 C 33.5 43.109375 33.261719 42.871094 33.023438 42.660156 C 33.742188 39.113281 35.660156 36.25 37.15625 34.460938 C 38.59375 32.730469 39.914062 31.65625 40.273438 31.359375 C 40.273438 31.359375 40.273438 31.359375 40.300781 31.359375 L 38.296875 30.554688 C 37.605469 30.644531 36.828125 30.734375 36.019531 30.882812 C 35.867188 30.316406 35.660156 29.839844 35.417969 29.421875 L 33.710938 28.734375 C 34.308594 29.390625 34.730469 30.167969 35 31.0625 C 34.25 31.210938 33.53125 31.359375 32.8125 31.539062 C 32.304688 29.808594 31.253906 28.289062 29.785156 27.15625 L 28.679688 27.601562 C 28.738281 27.660156 28.828125 27.691406 28.886719 27.75 C 30.386719 28.792969 31.375 30.167969 31.855469 31.804688 C 31.042969 32.046875 30.265625 32.285156 29.515625 32.550781 C 28.769531 30.703125 27.597656 29.363281 26.519531 28.4375 L 25.441406 28.855469 C 26.519531 29.691406 27.808594 31 28.589844 32.878906 C 28.589844 32.878906 28.558594 32.878906 28.558594 32.878906 C 27.71875 33.207031 26.96875 33.59375 26.222656 33.984375 C 25.441406 31.984375 24.152344 30.613281 23.074219 29.777344 L 21.996094 30.226562 C 23.164062 31.0625 24.574219 32.402344 25.351562 34.519531 C 24.601562 34.96875 23.914062 35.472656 23.285156 36.011719 C 22.625 34.222656 21.398438 32.699219 19.71875 31.628906 C 19.570312 31.539062 19.421875 31.417969 19.269531 31.359375 L 18.761719 32.222656 C 19.960938 32.910156 21.457031 34.164062 22.265625 36.191406 C 21.546875 35.921875 20.859375 35.683594 20.199219 35.472656 C 19.152344 35.144531 18.160156 34.878906 17.292969 34.667969 L 16.753906 35.5625 C 17.683594 35.773438 18.730469 36.039062 19.871094 36.398438 C 23.285156 37.5 28.226562 39.617188 32.664062 43.675781 C 31.792969 44.0625 30.953125 44.480469 30.175781 44.925781 C 27.929688 43.019531 25.382812 41.40625 22.597656 40.15625 C 20.320312 39.140625 17.921875 38.367188 15.40625 37.828125 L 14.867188 38.722656 C 14.925781 38.722656 14.984375 38.753906 15.074219 38.753906 C 18.882812 39.53125 24.363281 41.347656 29.308594 45.433594 C 28.5 45.96875 27.71875 46.535156 27.03125 47.164062 C 27 47.191406 26.96875 47.222656 26.941406 47.222656 C 25.023438 45.3125 22.714844 43.824219 20.050781 42.71875 C 18.042969 41.914062 15.855469 41.320312 13.519531 41.019531 L 13.519531 42.035156 C 17.382812 42.601562 22.355469 44.089844 26.222656 47.910156 C 25.59375 48.535156 25.050781 49.160156 24.574219 49.785156 C 21.367188 46.507812 17.292969 45.105469 14.386719 44.507812 C 14.085938 44.449219 13.789062 44.390625 13.519531 44.359375 L 13.519531 45.375 C 13.757812 45.402344 13.996094 45.464844 14.238281 45.523438 C 14.777344 45.640625 15.316406 45.761719 15.914062 45.941406 C 15.253906 46.417969 14.355469 47.164062 13.519531 48.148438 L 13.519531 49.847656 C 14.714844 47.996094 16.453125 46.773438 17.113281 46.328125 C 17.832031 46.566406 18.550781 46.863281 19.269531 47.222656 C 18.671875 47.609375 17.652344 48.355469 16.632812 49.371094 C 15.046875 50.980469 13.996094 52.769531 13.578125 54.558594 L 14.597656 54.558594 C 14.984375 53.007812 15.914062 51.515625 17.324219 50.085938 C 18.671875 48.714844 20.019531 47.910156 20.257812 47.757812 C 20.886719 48.117188 21.488281 48.503906 22.085938 48.980469 C 21.488281 49.28125 20.527344 49.847656 19.570312 50.859375 C 18.582031 51.933594 17.863281 53.15625 17.472656 54.585938 L 18.519531 54.585938 C 18.910156 53.453125 19.511719 52.410156 20.320312 51.546875 C 21.246094 50.5625 22.328125 49.9375 22.957031 49.699219 C 23.285156 49.996094 23.644531 50.324219 23.945312 50.652344 C 22.984375 52.082031 22.328125 53.453125 21.878906 54.585938 L 22.957031 54.585938 C 23.972656 52.113281 25.863281 48.804688 29.875 46.207031 C 30.207031 46.269531 31.375 46.535156 33.023438 47.101562 C 32.363281 47.460938 31.492188 47.996094 30.59375 48.742188 C 29.21875 49.90625 27.539062 51.816406 26.789062 54.585938 L 27.839844 54.585938 C 28.4375 52.648438 29.578125 50.949219 31.222656 49.546875 C 32.542969 48.445312 33.800781 47.820312 34.339844 47.609375 C 34.699219 47.757812 35.058594 47.910156 35.449219 48.085938 C 35.957031 48.324219 36.496094 48.566406 37.035156 48.863281 C 36.40625 49.191406 35.597656 49.667969 34.789062 50.355469 C 33.292969 51.574219 32.242188 53.007812 31.675781 54.585938 L 32.722656 54.585938 C 33.230469 53.335938 34.128906 52.171875 35.390625 51.128906 C 36.46875 50.234375 37.546875 49.699219 38.085938 49.429688 C 38.925781 49.90625 39.792969 50.441406 40.660156 51.097656 C 40.152344 51.308594 39.554688 51.605469 38.925781 52.054688 C 38.175781 52.589844 37.367188 53.394531 36.765625 54.585938 L 37.90625 54.585938 C 38.296875 53.933594 38.835938 53.363281 39.492188 52.886719 C 40.332031 52.261719 41.140625 51.964844 41.621094 51.816406 C 42.640625 52.621094 43.65625 53.542969 44.648438 54.585938 L 45.996094 54.585938 C 42.578125 50.710938 38.625 48.414062 35.808594 47.164062 C 33.832031 46.269531 32.183594 45.761719 31.132812 45.492188 C 32.09375 44.957031 33.140625 44.480469 34.339844 44.03125 C 34.789062 44.179688 37.394531 45.046875 40.332031 46.625 C 42.101562 47.582031 44.226562 48.890625 46.023438 50.59375 L 46.023438 49.25 C 44.585938 48.027344 42.847656 46.863281 40.8125 45.761719 C 38.863281 44.808594 37.066406 44.0625 35.929688 43.613281 " fill-opacity="1" fill-rule="nonzero"/><path fill="#000000" d="M 49.738281 42.691406 L 46.894531 41.257812 L 46.894531 42.242188 L 49.351562 43.464844 C 49.410156 43.496094 49.46875 43.523438 49.558594 43.523438 C 49.710938 43.523438 49.890625 43.4375 49.949219 43.285156 C 50.039062 43.046875 49.949219 42.78125 49.738281 42.691406 " fill-opacity="1" fill-rule="nonzero"/><path fill="#000000" d="M 9.863281 42.691406 L 12.710938 41.257812 L 12.710938 42.242188 L 10.253906 43.464844 C 10.191406 43.496094 10.132812 43.523438 10.042969 43.523438 C 9.894531 43.523438 9.714844 43.4375 9.652344 43.285156 C 9.5625 43.046875 9.652344 42.78125 9.863281 42.691406 " fill-opacity="1" fill-rule="nonzero"/></svg>