<svg xmlns="http://www.w3.org/2000/svg" xmlns:xlink="http://www.w3.org/1999/xlink" width="220" zoomAndPan="magnify" viewBox="0 0 165 82.499998" height="110" preserveAspectRatio="xMidYMid meet" version="1.0"><defs><clipPath id="82bc325318"><path d="M 0.496094 0 L 164.503906 0 L 164.503906 82.003906 L 0.496094 82.003906 Z M 0.496094 0 " clip-rule="nonzero"/></clipPath><clipPath id="ff1b1a0436"><path d="M 58 29 L 156.300781 29 L 156.300781 54 L 58 54 Z M 58 29 " clip-rule="nonzero"/></clipPath><clipPath id="ed553e5c00"><path d="M 8.699219 14.433594 L 60 14.433594 L 60 66 L 8.699219 66 Z M 8.699219 14.433594 " clip-rule="nonzero"/></clipPath></defs><g clip-path="url(#82bc325318)"><path fill="#ffffff" d="M 0.496094 0 L 164.503906 0 L 164.503906 89.457031 L 0.496094 89.457031 Z M 0.496094 0 " fill-opacity="1" fill-rule="nonzero"/><path fill="#ffffff" d="M 0.496094 0 L 164.503906 0 L 164.503906 82.003906 L 0.496094 82.003906 Z M 0.496094 0 " fill-opacity="1" fill-rule="nonzero"/><path fill="#ffffff" d="M 0.496094 0 L 164.503906 0 L 164.503906 82.003906 L 0.496094 82.003906 Z M 0.496094 0 " fill-opacity="1" fill-rule="nonzero"/></g><g clip-path="url(#ff1b1a0436)"><path fill="#072638" d="M 108.363281 30.175781 C 108.230469 30.011719 108.0625 29.941406 107.792969 29.941406 L 104.464844 29.941406 C 104.097656 29.941406 103.660156 30.078125 103.492188 30.746094 L 97.679688 52.621094 C 97.609375 52.886719 97.609375 53.121094 97.746094 53.289062 C 97.878906 53.457031 98.046875 53.523438 98.351562 53.523438 L 101.675781 53.523438 C 102.011719 53.523438 102.484375 53.390625 102.652344 52.722656 L 108.464844 30.8125 C 108.5 30.546875 108.5 30.34375 108.363281 30.175781 Z M 134.878906 30.109375 C 134.746094 29.976562 134.578125 29.875 134.308594 29.875 L 130.140625 29.875 C 129.90625 29.875 129.738281 29.941406 129.570312 30.078125 C 129.46875 30.175781 129.335938 30.34375 129.199219 30.546875 L 119.757812 45.863281 L 118.3125 30.679688 C 118.3125 30.445312 118.277344 30.277344 118.210938 30.179688 C 118.144531 30.078125 118.007812 29.910156 117.707031 29.910156 L 113.742188 29.910156 C 113.472656 29.910156 113.238281 29.976562 113.070312 30.144531 C 112.902344 30.277344 112.800781 30.480469 112.734375 30.679688 L 104.535156 52.621094 C 104.398438 52.886719 104.433594 53.121094 104.566406 53.289062 C 104.699219 53.457031 104.902344 53.523438 105.171875 53.523438 L 108.398438 53.523438 C 108.667969 53.523438 108.867188 53.457031 109.035156 53.324219 C 109.171875 53.191406 109.304688 53.023438 109.40625 52.789062 L 114.648438 38.839844 L 115.957031 52.285156 C 115.992188 52.554688 116.058594 52.753906 116.160156 52.855469 C 116.261719 52.988281 116.464844 53.023438 116.699219 53.023438 L 119.320312 53.023438 C 119.519531 53.023438 119.6875 52.957031 119.855469 52.855469 C 119.992188 52.753906 120.125 52.585938 120.292969 52.355469 L 128.898438 38.875 L 126.710938 52.65625 C 126.679688 52.921875 126.710938 53.121094 126.8125 53.257812 C 126.914062 53.421875 127.113281 53.492188 127.417969 53.492188 L 130.542969 53.492188 C 131.078125 53.492188 131.449219 53.191406 131.519531 52.6875 L 134.980469 30.746094 C 135.046875 30.480469 135.015625 30.277344 134.878906 30.109375 Z M 156.183594 30.175781 C 156.050781 30.011719 155.851562 29.941406 155.582031 29.941406 L 140.257812 29.941406 C 139.921875 29.941406 139.484375 30.078125 139.28125 30.710938 L 133.46875 52.652344 C 133.402344 52.921875 133.402344 53.15625 133.535156 53.324219 C 133.636719 53.492188 133.839844 53.558594 134.105469 53.558594 L 149.699219 53.558594 C 150.203125 53.558594 150.574219 53.289062 150.707031 52.789062 L 151.515625 49.777344 C 151.582031 49.511719 151.546875 49.308594 151.449219 49.140625 C 151.3125 48.972656 151.113281 48.90625 150.84375 48.90625 L 139.449219 48.90625 L 140.859375 43.589844 L 149.363281 43.589844 C 149.632812 43.589844 149.835938 43.523438 150.035156 43.390625 C 150.238281 43.253906 150.371094 43.054688 150.441406 42.820312 L 151.246094 39.84375 C 151.3125 39.542969 151.28125 39.34375 151.144531 39.175781 C 151.011719 39.039062 150.808594 38.941406 150.507812 38.941406 L 142.105469 38.941406 L 143.246094 34.625 L 154.4375 34.625 C 154.941406 34.625 155.277344 34.359375 155.445312 33.855469 L 156.253906 30.847656 C 156.320312 30.546875 156.285156 30.34375 156.183594 30.175781 Z M 99.324219 37.804688 C 99.15625 38.472656 98.855469 39.140625 98.484375 39.777344 C 98.113281 40.414062 97.679688 41.015625 97.175781 41.582031 C 96.667969 42.152344 96.097656 42.6875 95.492188 43.15625 C 94.921875 43.589844 94.316406 43.992188 93.679688 44.324219 L 95.660156 52.621094 C 95.695312 52.820312 95.660156 53.054688 95.527344 53.257812 C 95.390625 53.457031 95.15625 53.558594 94.886719 53.558594 L 91.328125 53.558594 C 91.089844 53.558594 90.921875 53.492188 90.789062 53.390625 C 90.652344 53.289062 90.585938 53.089844 90.519531 52.820312 L 88.839844 45.53125 L 83.898438 45.53125 L 81.984375 52.789062 C 81.847656 53.289062 81.480469 53.558594 81.007812 53.558594 L 77.648438 53.558594 C 77.378906 53.558594 77.179688 53.492188 77.078125 53.324219 C 76.941406 53.15625 76.941406 52.957031 77.011719 52.652344 L 82.824219 30.710938 C 82.890625 30.511719 82.992188 30.34375 83.125 30.210938 C 83.292969 30.042969 83.496094 29.976562 83.796875 29.976562 L 93.445312 29.976562 C 94.550781 29.976562 95.558594 30.210938 96.402344 30.644531 C 97.242188 31.082031 97.945312 31.683594 98.484375 32.386719 C 99.023438 33.121094 99.359375 33.957031 99.527344 34.894531 C 99.660156 35.796875 99.59375 36.800781 99.324219 37.804688 Z M 94.789062 36.296875 C 94.71875 35.898438 94.585938 35.527344 94.351562 35.195312 C 94.117188 34.894531 93.78125 34.625 93.375 34.460938 C 92.972656 34.257812 92.46875 34.191406 91.863281 34.191406 L 86.824219 34.191406 L 85.042969 41.148438 L 89.511719 41.148438 C 90.050781 41.148438 90.585938 41.046875 91.125 40.882812 C 91.695312 40.714844 92.234375 40.445312 92.703125 40.113281 C 93.175781 39.8125 93.609375 39.410156 93.980469 38.972656 C 94.316406 38.539062 94.585938 38.105469 94.6875 37.636719 C 94.820312 37.167969 94.855469 36.699219 94.789062 36.296875 Z M 79.699219 37.671875 C 79.429688 38.640625 78.992188 39.578125 78.421875 40.480469 C 77.816406 41.382812 77.113281 42.152344 76.269531 42.855469 C 75.429688 43.523438 74.523438 44.09375 73.515625 44.492188 C 72.507812 44.894531 71.464844 45.09375 70.390625 45.09375 L 65.28125 45.09375 L 63.230469 52.722656 C 63.03125 53.390625 62.59375 53.523438 62.257812 53.523438 L 58.929688 53.523438 C 58.660156 53.523438 58.460938 53.457031 58.359375 53.289062 C 58.226562 53.121094 58.226562 52.921875 58.292969 52.621094 L 64.105469 30.679688 C 64.171875 30.445312 64.308594 30.246094 64.476562 30.113281 C 64.644531 29.976562 64.84375 29.910156 65.078125 29.910156 L 74.054688 29.910156 C 75.128906 29.910156 76.101562 30.144531 76.941406 30.546875 C 77.75 30.980469 78.421875 31.550781 78.925781 32.285156 C 79.429688 32.988281 79.734375 33.824219 79.902344 34.761719 C 80 35.695312 79.96875 36.667969 79.699219 37.671875 Z M 75.296875 36.199219 C 75.261719 35.761719 75.128906 35.394531 74.894531 35.0625 C 74.691406 34.726562 74.355469 34.460938 73.984375 34.257812 C 73.582031 34.058594 73.078125 33.957031 72.507812 33.957031 L 68.105469 33.957031 L 66.390625 40.847656 L 70.21875 40.847656 C 70.722656 40.847656 71.230469 40.746094 71.765625 40.582031 C 72.304688 40.414062 72.808594 40.179688 73.277344 39.878906 C 73.75 39.578125 74.152344 39.242188 74.488281 38.839844 C 74.824219 38.441406 75.058594 38.003906 75.160156 37.570312 C 75.328125 37.101562 75.363281 36.632812 75.296875 36.199219 Z M 75.296875 36.199219 " fill-opacity="1" fill-rule="nonzero"/></g><path fill="#072638" d="M 41.734375 30.90625 C 42.816406 30.90625 43.726562 31.773438 43.796875 32.894531 C 43.863281 34.011719 43.085938 34.917969 41.972656 35.023438 L 41.769531 35.023438 C 40.65625 35.023438 39.742188 34.15625 39.675781 33.039062 C 39.640625 32.386719 39.878906 31.808594 40.351562 31.375 C 40.753906 31.085938 41.230469 30.90625 41.734375 30.90625 Z M 41.734375 30.90625 " fill-opacity="1" fill-rule="nonzero"/><path fill="#072638" d="M 58.773438 20.789062 C 57.964844 20.386719 56.988281 20.6875 56.617188 21.460938 L 52.601562 30.171875 L 48.386719 30.507812 C 47.949219 30.542969 47.578125 30.742188 47.34375 31.078125 C 47.074219 31.414062 46.972656 31.820312 47.039062 32.257812 C 47.175781 33.132812 47.984375 33.804688 48.859375 33.703125 L 51.050781 33.535156 L 46.800781 42.75 C 46.800781 42.78125 46.769531 42.78125 46.769531 42.816406 C 46.296875 43.792969 45.925781 44.566406 45.65625 45.070312 C 45.320312 45.710938 45.015625 46.449219 44.710938 46.953125 C 42.722656 49.945312 39.855469 51.054688 38.84375 51.054688 C 38.40625 51.054688 38 50.921875 37.765625 50.71875 C 37.628906 50.585938 37.5625 50.351562 37.53125 50.046875 C 37.496094 48.0625 39.082031 44.734375 39.6875 43.65625 C 39.753906 43.554688 39.789062 43.453125 39.824219 43.320312 C 41.207031 40.96875 41.8125 39.152344 41.847656 39.082031 C 42.117188 38.277344 41.644531 37.335938 40.800781 37 C 39.957031 36.664062 39.046875 37.066406 38.777344 37.871094 C 38.777344 37.871094 38.207031 39.554688 36.921875 41.707031 C 36.855469 41.773438 36.824219 41.839844 36.753906 41.941406 C 36.753906 41.976562 36.6875 42.078125 36.621094 42.210938 C 36.113281 43.019531 35.609375 43.757812 35.035156 44.464844 C 31.628906 48.769531 27.414062 51.089844 22.488281 51.425781 C 21.613281 51.492188 21.007812 52.230469 21.105469 53.105469 C 21.207031 53.949219 21.949219 54.585938 22.792969 54.585938 C 22.828125 54.585938 22.859375 54.585938 22.894531 54.585938 C 27.078125 54.316406 30.886719 52.769531 34.191406 50.046875 C 34.257812 51.527344 34.933594 52.46875 35.472656 53.039062 C 36.046875 53.578125 37.429688 54.386719 38.980469 54.386719 C 40.464844 54.386719 42.859375 53.613281 44.984375 51.929688 C 45.050781 52.03125 45.117188 52.132812 45.183594 52.230469 C 46.097656 53.644531 47.648438 54.386719 49.570312 54.386719 L 49.636719 54.386719 C 49.671875 54.386719 49.703125 54.386719 49.738281 54.386719 C 49.769531 54.386719 49.804688 54.386719 49.839844 54.386719 C 52.839844 54.386719 55.707031 50.785156 56.820312 48.871094 C 57.023438 48.5 57.089844 48.0625 56.953125 47.660156 C 56.820312 47.222656 56.550781 46.886719 56.179688 46.617188 C 55.808594 46.382812 55.371094 46.3125 54.929688 46.382812 C 54.527344 46.480469 54.15625 46.71875 53.953125 47.085938 C 52.605469 49.441406 50.582031 51.089844 49.636719 51.089844 C 49.601562 51.089844 49.570312 51.089844 49.535156 51.089844 C 49.503906 51.089844 49.46875 51.089844 49.402344 51.089844 C 48.660156 51.089844 48.152344 50.886719 47.917969 50.550781 C 47.613281 50.082031 47.613281 49.308594 47.882812 48.332031 C 47.917969 48.265625 47.917969 48.230469 47.949219 48.164062 C 48.085938 47.691406 48.289062 47.222656 48.558594 46.75 C 49.300781 45.304688 50.953125 41.839844 53.445312 36.425781 L 53.546875 36.191406 C 53.546875 36.191406 53.546875 36.15625 53.582031 36.15625 L 53.683594 35.957031 C 54.085938 35.082031 54.492188 34.207031 54.898438 33.296875 L 58.941406 32.960938 C 59.382812 32.929688 59.753906 32.726562 59.988281 32.390625 C 60.257812 32.054688 60.359375 31.652344 60.292969 31.214844 C 60.226562 30.777344 59.988281 30.40625 59.652344 30.136719 C 59.3125 29.867188 58.875 29.734375 58.46875 29.769531 L 56.445312 29.9375 C 58.101562 26.371094 59.480469 23.34375 59.582031 23.078125 C 59.988281 22.199219 59.617188 21.226562 58.773438 20.789062 Z M 58.773438 20.789062 " fill-opacity="1" fill-rule="nonzero"/><g clip-path="url(#ed553e5c00)"><path fill="#072638" d="M 59.25 17.183594 C 59.082031 16.289062 58.207031 15.660156 57.332031 15.757812 L 34.625 18.28125 C 34.792969 18.113281 34.859375 18.015625 34.859375 18.015625 L 35.667969 17.316406 C 36.035156 17.019531 36.238281 16.554688 36.203125 16.023438 C 36.171875 15.160156 35.363281 14.433594 34.457031 14.433594 C 34.085938 14.433594 33.75 14.53125 33.480469 14.765625 L 33.007812 15.128906 L 32.503906 15.59375 C 32.402344 15.691406 31.5625 16.457031 30.046875 18.808594 L 17.0625 20.269531 C 16.757812 20.304688 13.933594 20.667969 12.585938 23.023438 C 11.578125 24.78125 11.644531 27.035156 12.820312 29.789062 C 13.089844 30.453125 13.765625 30.882812 14.472656 30.882812 C 14.671875 30.882812 14.839844 30.851562 15.007812 30.785156 C 15.851562 30.484375 16.21875 29.558594 15.882812 28.695312 C 15.144531 26.96875 15.007812 25.644531 15.515625 24.78125 C 16.121094 23.6875 17.601562 23.519531 17.667969 23.488281 L 27.894531 22.324219 C 25.542969 26.4375 22.984375 31.746094 20.292969 38.082031 L 10.164062 38.910156 L 10.0625 38.910156 C 9.253906 39.011719 8.648438 39.707031 8.71875 40.539062 C 8.785156 41.433594 9.558594 42.164062 10.5 42.164062 C 10.535156 42.164062 10.601562 42.164062 10.636719 42.164062 L 10.667969 42.164062 L 18.84375 41.5 C 16.1875 47.96875 13.394531 55.398438 10.535156 63.621094 L 10.535156 63.65625 C 10.464844 63.855469 10.433594 64.054688 10.464844 64.285156 C 10.535156 65.183594 11.308594 65.910156 12.25 65.910156 C 12.921875 65.910156 13.460938 65.515625 13.695312 64.949219 C 13.695312 64.917969 13.730469 64.882812 13.730469 64.851562 C 16.792969 56.027344 19.820312 48.066406 22.679688 41.199219 L 34.285156 40.207031 C 35.195312 40.140625 35.800781 39.34375 35.667969 38.449219 C 35.597656 38.015625 35.363281 37.617188 34.992188 37.355469 C 34.625 37.089844 34.1875 36.921875 33.75 36.988281 L 24.058594 37.785156 C 25.875 33.703125 27.589844 30.089844 29.207031 27.003906 C 30.214844 25.082031 31.191406 23.324219 32.132812 21.863281 L 57.941406 18.976562 C 58.816406 18.910156 59.421875 18.082031 59.25 17.183594 Z M 59.25 17.183594 " fill-opacity="1" fill-rule="nonzero"/></g><path fill="#072638" d="M 20.621094 63.277344 C 20.617188 63.308594 20.613281 63.324219 20.613281 63.335938 C 20.613281 63.417969 20.664062 63.457031 20.761719 63.457031 L 24.476562 63.457031 C 24.59375 63.457031 24.667969 63.398438 24.695312 63.277344 L 24.929688 62.175781 C 24.933594 62.144531 24.941406 62.128906 24.941406 62.117188 C 24.941406 62.035156 24.886719 61.996094 24.789062 61.996094 L 22.492188 61.996094 L 23.445312 57.511719 C 23.449219 57.484375 23.457031 57.464844 23.457031 57.453125 C 23.457031 57.371094 23.40625 57.328125 23.308594 57.328125 L 22.070312 57.328125 C 21.96875 57.328125 21.878906 57.398438 21.851562 57.511719 Z M 25.074219 63.277344 C 25.046875 63.320312 25.035156 63.355469 25.035156 63.378906 C 25.035156 63.429688 25.074219 63.457031 25.15625 63.457031 L 26.433594 63.457031 C 26.558594 63.457031 26.652344 63.398438 26.71875 63.277344 L 27.171875 62.46875 L 29.433594 62.46875 L 29.546875 63.277344 C 29.566406 63.398438 29.636719 63.457031 29.761719 63.457031 L 30.949219 63.457031 C 31.054688 63.457031 31.105469 63.414062 31.105469 63.324219 C 31.105469 63.300781 31.105469 63.289062 31.101562 63.277344 L 30.070312 57.511719 C 30.050781 57.386719 29.980469 57.328125 29.863281 57.328125 L 28.851562 57.328125 C 28.722656 57.328125 28.625 57.386719 28.550781 57.511719 Z M 27.921875 61.140625 L 28.976562 59.265625 L 29.242188 61.140625 Z M 31.933594 63.277344 C 31.929688 63.308594 31.925781 63.324219 31.925781 63.332031 C 31.925781 63.414062 31.976562 63.457031 32.082031 63.457031 L 35.15625 63.457031 C 36.125 63.46875 37.054688 62.675781 37.273438 61.605469 C 37.292969 61.503906 37.300781 61.402344 37.300781 61.285156 C 37.300781 61.066406 37.269531 60.851562 37.199219 60.640625 C 37.128906 60.429688 37.042969 60.273438 36.9375 60.160156 C 37.242188 59.867188 37.460938 59.503906 37.53125 59.105469 C 37.546875 59.007812 37.558594 58.910156 37.558594 58.816406 C 37.574219 58.003906 36.882812 57.3125 35.941406 57.328125 L 33.390625 57.328125 C 33.265625 57.328125 33.191406 57.386719 33.164062 57.511719 Z M 34.546875 58.546875 L 35.480469 58.546875 C 35.792969 58.546875 35.996094 58.746094 35.996094 59.019531 C 35.996094 59.058594 35.992188 59.101562 35.980469 59.144531 C 35.898438 59.496094 35.589844 59.742188 35.214844 59.742188 L 34.289062 59.742188 Z M 34.054688 60.851562 L 35.207031 60.851562 C 35.355469 60.851562 35.480469 60.910156 35.570312 61.019531 C 35.664062 61.132812 35.710938 61.261719 35.710938 61.410156 C 35.710938 61.457031 35.707031 61.5 35.699219 61.542969 C 35.621094 61.910156 35.25 62.230469 34.910156 62.230469 L 33.761719 62.230469 Z M 37.867188 62.472656 C 38.300781 63.0625 39.097656 63.535156 39.921875 63.535156 C 41.300781 63.535156 42.304688 62.839844 42.554688 61.640625 C 42.585938 61.496094 42.605469 61.351562 42.605469 61.203125 C 42.589844 60.375 42.039062 59.980469 41.027344 59.609375 C 40.441406 59.410156 40.214844 59.304688 40.191406 59.050781 C 40.191406 59.039062 40.195312 59.011719 40.199219 58.976562 C 40.265625 58.691406 40.574219 58.566406 40.933594 58.566406 C 41.089844 58.566406 41.21875 58.585938 41.328125 58.625 C 41.554688 58.726562 41.796875 58.867188 41.90625 58.992188 C 41.972656 59.0625 42.039062 59.101562 42.097656 59.101562 C 42.140625 59.101562 42.191406 59.082031 42.246094 59.039062 L 42.914062 58.425781 C 43.015625 58.34375 43.0625 58.261719 43.0625 58.183594 C 43.0625 58.136719 43.042969 58.09375 43.003906 58.046875 C 42.789062 57.796875 42.503906 57.59375 42.144531 57.433594 C 41.789062 57.277344 41.425781 57.199219 41.058594 57.199219 C 39.738281 57.199219 38.847656 57.871094 38.621094 58.898438 C 38.589844 59.039062 38.578125 59.164062 38.578125 59.261719 C 38.578125 59.996094 39.121094 60.503906 40.222656 60.917969 C 40.648438 61.074219 40.945312 61.222656 40.945312 61.484375 C 40.945312 61.515625 40.945312 61.535156 40.941406 61.550781 C 40.855469 61.929688 40.570312 62.125 40.09375 62.125 C 39.9375 62.125 39.789062 62.089844 39.65625 62.027344 C 39.386719 61.894531 39.226562 61.738281 38.980469 61.480469 C 38.921875 61.414062 38.867188 61.386719 38.8125 61.386719 C 38.765625 61.386719 38.714844 61.40625 38.667969 61.445312 L 37.898438 62.109375 C 37.824219 62.167969 37.785156 62.226562 37.785156 62.289062 C 37.785156 62.335938 37.808594 62.394531 37.867188 62.472656 Z M 37.867188 62.472656 " fill-opacity="1" fill-rule="nonzero"/></svg>