<svg xmlns="http://www.w3.org/2000/svg" xmlns:xlink="http://www.w3.org/1999/xlink" width="220" zoomAndPan="magnify" viewBox="0 0 165 82.499998" height="110" preserveAspectRatio="xMidYMid meet" version="1.0"><defs><clipPath id="157a622f37"><path d="M 0.496094 0 L 164.503906 0 L 164.503906 82.003906 L 0.496094 82.003906 Z M 0.496094 0 " clip-rule="nonzero"/></clipPath></defs><g clip-path="url(#157a622f37)"><path fill="#ffffff" d="M 0.496094 0 L 164.503906 0 L 164.503906 82.003906 L 0.496094 82.003906 Z M 0.496094 0 " fill-opacity="1" fill-rule="nonzero"/><path fill="#ffffff" d="M 0.496094 0 L 164.503906 0 L 164.503906 82.003906 L 0.496094 82.003906 Z M 0.496094 0 " fill-opacity="1" fill-rule="nonzero"/></g><path fill="#082742" d="M 39.425781 45.917969 C 39.113281 45.917969 38.808594 45.859375 38.527344 45.738281 C 38.242188 45.621094 37.992188 45.457031 37.777344 45.25 C 37.5625 45.042969 37.390625 44.796875 37.261719 44.523438 C 37.136719 44.25 37.074219 43.953125 37.074219 43.640625 L 37.074219 43.355469 L 37.710938 43.253906 L 37.710938 43.640625 C 37.710938 43.875 37.757812 44.097656 37.855469 44.304688 C 37.949219 44.503906 38.078125 44.683594 38.238281 44.839844 C 38.398438 44.992188 38.589844 45.113281 38.800781 45.199219 C 39.011719 45.289062 39.238281 45.335938 39.472656 45.335938 L 40.089844 45.335938 C 40.324219 45.335938 40.550781 45.289062 40.761719 45.199219 C 40.96875 45.113281 41.160156 44.992188 41.316406 44.839844 C 41.480469 44.683594 41.609375 44.503906 41.703125 44.304688 C 41.800781 44.097656 41.847656 43.875 41.847656 43.640625 L 41.847656 43.34375 C 41.847656 42.988281 41.777344 42.6875 41.632812 42.445312 C 41.492188 42.203125 41.304688 42 41.074219 41.832031 C 40.847656 41.675781 40.589844 41.535156 40.304688 41.421875 C 40.027344 41.3125 39.742188 41.203125 39.449219 41.09375 C 39.160156 40.984375 38.878906 40.867188 38.609375 40.738281 C 38.34375 40.613281 38.105469 40.453125 37.894531 40.261719 C 37.6875 40.074219 37.523438 39.84375 37.398438 39.574219 C 37.273438 39.308594 37.210938 38.96875 37.210938 38.566406 L 37.210938 38.382812 C 37.210938 38.070312 37.273438 37.773438 37.386719 37.5 C 37.507812 37.226562 37.671875 36.980469 37.878906 36.773438 C 38.085938 36.566406 38.332031 36.402344 38.609375 36.285156 C 38.886719 36.167969 39.1875 36.105469 39.5 36.105469 L 40.128906 36.105469 C 40.445312 36.105469 40.742188 36.167969 41.019531 36.285156 C 41.296875 36.402344 41.542969 36.566406 41.746094 36.773438 C 41.953125 36.980469 42.117188 37.222656 42.238281 37.5 C 42.355469 37.773438 42.417969 38.074219 42.417969 38.382812 L 42.417969 38.535156 L 41.78125 38.632812 L 41.78125 38.382812 C 41.78125 38.152344 41.738281 37.929688 41.648438 37.722656 C 41.5625 37.523438 41.4375 37.34375 41.289062 37.191406 C 41.132812 37.042969 40.953125 36.921875 40.753906 36.832031 C 40.546875 36.742188 40.324219 36.699219 40.089844 36.699219 L 39.542969 36.699219 C 39.308594 36.699219 39.085938 36.742188 38.882812 36.832031 C 38.683594 36.917969 38.5 37.039062 38.34375 37.191406 C 38.191406 37.34375 38.066406 37.523438 37.980469 37.722656 C 37.890625 37.929688 37.84375 38.152344 37.84375 38.382812 L 37.84375 38.570312 C 37.84375 38.90625 37.917969 39.195312 38.0625 39.425781 C 38.199219 39.652344 38.390625 39.851562 38.625 40.011719 C 38.847656 40.167969 39.105469 40.308594 39.390625 40.421875 L 40.242188 40.765625 C 40.53125 40.878906 40.8125 41.003906 41.085938 41.140625 C 41.351562 41.277344 41.589844 41.441406 41.800781 41.632812 C 42.003906 41.824219 42.171875 42.058594 42.296875 42.335938 C 42.421875 42.609375 42.484375 42.953125 42.484375 43.347656 L 42.484375 43.640625 C 42.484375 43.953125 42.417969 44.25 42.292969 44.527344 C 42.164062 44.804688 41.992188 45.046875 41.777344 45.253906 C 41.566406 45.457031 41.3125 45.625 41.03125 45.742188 C 40.746094 45.859375 40.445312 45.921875 40.128906 45.921875 L 39.425781 45.921875 Z M 39.425781 45.917969 " fill-opacity="1" fill-rule="nonzero"/><path fill="#082742" d="M 55.558594 36.242188 L 56.191406 36.242188 L 56.191406 45.78125 L 55.558594 45.78125 Z M 55.558594 36.242188 " fill-opacity="1" fill-rule="nonzero"/><path fill="#082742" d="M 69.617188 45.78125 L 69.617188 36.242188 L 72.601562 36.242188 C 72.914062 36.242188 73.214844 36.300781 73.492188 36.417969 C 73.769531 36.539062 74.015625 36.703125 74.222656 36.910156 C 74.429688 37.113281 74.589844 37.359375 74.710938 37.636719 C 74.828125 37.914062 74.890625 38.214844 74.890625 38.527344 L 74.890625 43.503906 C 74.890625 43.8125 74.828125 44.113281 74.710938 44.390625 C 74.59375 44.664062 74.429688 44.90625 74.222656 45.117188 C 74.015625 45.320312 73.769531 45.484375 73.492188 45.601562 C 73.214844 45.722656 72.914062 45.78125 72.601562 45.78125 Z M 70.25 45.1875 L 72.558594 45.1875 C 72.792969 45.1875 73.015625 45.144531 73.222656 45.054688 C 73.421875 44.964844 73.601562 44.847656 73.757812 44.695312 C 73.910156 44.542969 74.035156 44.367188 74.121094 44.164062 C 74.210938 43.957031 74.253906 43.734375 74.253906 43.5 L 74.253906 38.527344 C 74.253906 38.292969 74.210938 38.070312 74.121094 37.867188 C 74.035156 37.664062 73.910156 37.484375 73.757812 37.332031 C 73.601562 37.175781 73.421875 37.054688 73.222656 36.964844 C 73.015625 36.875 72.792969 36.832031 72.558594 36.832031 L 70.25 36.832031 Z M 70.25 45.1875 " fill-opacity="1" fill-rule="nonzero"/><path fill="#082742" d="M 88.167969 45.78125 L 88.167969 36.242188 L 93.445312 36.242188 L 93.445312 36.832031 L 88.804688 36.832031 L 88.804688 40.71875 L 92.5625 40.71875 L 92.5625 41.308594 L 88.804688 41.308594 L 88.804688 45.1875 L 93.445312 45.1875 L 93.445312 45.78125 Z M 88.167969 45.78125 " fill-opacity="1" fill-rule="nonzero"/><path fill="#082742" d="M 110.609375 45.78125 L 109.960938 43.503906 L 106.664062 43.503906 L 106.019531 45.78125 L 105.363281 45.78125 L 108.164062 36.242188 L 108.441406 36.242188 L 111.257812 45.78125 Z M 108.15625 38.265625 L 106.832031 42.910156 L 109.796875 42.910156 L 108.457031 38.242188 L 108.433594 37.90625 L 108.183594 37.90625 Z M 108.15625 38.265625 " fill-opacity="1" fill-rule="nonzero"/><path fill="#082742" d="M 26.796875 24.539062 L 3.671875 37.425781 L 14.757812 45.433594 L 7.816406 57.484375 L 22.917969 51.328125 L 19.371094 37.429688 Z M 26.796875 24.539062 " fill-opacity="1" fill-rule="nonzero"/><path fill="#082742" d="M 125.351562 26.894531 L 125.726562 26.894531 L 125.726562 55.132812 L 125.351562 55.132812 Z M 125.351562 26.894531 " fill-opacity="1" fill-rule="nonzero"/><path fill="#082742" d="M 138.480469 42.929688 C 138.152344 42.769531 137.898438 42.539062 137.722656 42.242188 C 137.550781 41.941406 137.460938 41.585938 137.460938 41.175781 C 137.460938 40.765625 137.546875 40.410156 137.722656 40.109375 C 137.894531 39.804688 138.144531 39.574219 138.46875 39.414062 C 138.789062 39.253906 139.175781 39.171875 139.621094 39.171875 C 140.15625 39.171875 140.597656 39.289062 140.9375 39.519531 C 141.28125 39.75 141.488281 40.070312 141.554688 40.472656 L 140.972656 40.472656 C 140.910156 40.148438 140.761719 39.902344 140.53125 39.726562 C 140.300781 39.554688 140.003906 39.46875 139.636719 39.46875 C 139.175781 39.46875 138.816406 39.617188 138.554688 39.917969 C 138.296875 40.214844 138.164062 40.632812 138.164062 41.171875 C 138.164062 41.710938 138.296875 42.128906 138.558594 42.425781 C 138.820312 42.726562 139.1875 42.875 139.660156 42.875 C 139.878906 42.875 140.074219 42.851562 140.253906 42.804688 C 140.429688 42.757812 140.605469 42.683594 140.777344 42.578125 L 140.777344 41.347656 L 139.429688 41.347656 L 139.429688 41.070312 L 141.472656 41.070312 L 141.472656 42.609375 C 141.265625 42.789062 141.003906 42.925781 140.6875 43.023438 C 140.371094 43.121094 140.027344 43.167969 139.65625 43.167969 C 139.199219 43.167969 138.808594 43.089844 138.480469 42.929688 Z M 138.480469 42.929688 " fill-opacity="1" fill-rule="nonzero"/><path fill="#082742" d="M 146.109375 42.816406 C 146.179688 42.953125 146.246094 43.03125 146.3125 43.058594 L 146.3125 43.113281 L 145.605469 43.113281 C 145.488281 42.980469 145.367188 42.75 145.25 42.425781 C 145.152344 42.15625 145.050781 41.949219 144.957031 41.804688 C 144.855469 41.65625 144.734375 41.558594 144.582031 41.515625 L 143.507812 41.515625 L 143.507812 43.113281 L 142.808594 43.113281 L 142.808594 39.230469 L 144.464844 39.230469 C 145.609375 39.230469 146.179688 39.609375 146.179688 40.371094 C 146.179688 40.9375 145.863281 41.296875 145.222656 41.441406 C 145.363281 41.511719 145.484375 41.613281 145.582031 41.746094 C 145.679688 41.875 145.773438 42.054688 145.867188 42.28125 C 145.957031 42.507812 146.039062 42.683594 146.109375 42.816406 Z M 143.507812 41.226562 L 144.46875 41.226562 C 144.796875 41.226562 145.046875 41.160156 145.222656 41.027344 C 145.402344 40.898438 145.488281 40.679688 145.488281 40.371094 C 145.488281 40.066406 145.398438 39.851562 145.222656 39.71875 C 145.046875 39.585938 144.792969 39.523438 144.46875 39.523438 L 143.507812 39.523438 Z M 143.507812 41.226562 " fill-opacity="1" fill-rule="nonzero"/><path fill="#082742" d="M 148.230469 42.929688 C 147.910156 42.769531 147.664062 42.539062 147.492188 42.238281 C 147.324219 41.9375 147.238281 41.574219 147.238281 41.152344 C 147.238281 40.738281 147.324219 40.382812 147.492188 40.085938 C 147.664062 39.789062 147.910156 39.5625 148.230469 39.40625 C 148.550781 39.25 148.933594 39.171875 149.375 39.171875 C 149.820312 39.171875 150.199219 39.25 150.519531 39.40625 C 150.84375 39.5625 151.089844 39.789062 151.257812 40.085938 C 151.425781 40.382812 151.511719 40.738281 151.511719 41.152344 C 151.511719 41.574219 151.425781 41.9375 151.257812 42.238281 C 151.089844 42.539062 150.84375 42.769531 150.519531 42.929688 C 150.199219 43.089844 149.820312 43.167969 149.375 43.167969 C 148.933594 43.167969 148.550781 43.089844 148.230469 42.929688 Z M 150.4375 42.425781 C 150.6875 42.128906 150.808594 41.707031 150.808594 41.152344 C 150.808594 40.609375 150.6875 40.195312 150.4375 39.902344 C 150.191406 39.613281 149.835938 39.46875 149.375 39.46875 C 148.914062 39.46875 148.5625 39.613281 148.3125 39.902344 C 148.066406 40.195312 147.941406 40.609375 147.941406 41.152344 C 147.941406 41.707031 148.066406 42.128906 148.3125 42.425781 C 148.5625 42.726562 148.914062 42.875 149.375 42.875 C 149.835938 42.875 150.191406 42.726562 150.4375 42.425781 Z M 150.4375 42.425781 " fill-opacity="1" fill-rule="nonzero"/><path fill="#082742" d="M 153.203125 42.730469 C 152.917969 42.4375 152.777344 42.027344 152.777344 41.496094 L 152.777344 39.230469 L 153.472656 39.230469 L 153.472656 41.625 C 153.472656 42.019531 153.5625 42.328125 153.742188 42.546875 C 153.921875 42.765625 154.222656 42.875 154.648438 42.875 C 155.0625 42.875 155.363281 42.765625 155.542969 42.550781 C 155.722656 42.335938 155.816406 42.027344 155.816406 41.625 L 155.816406 39.226562 L 156.511719 39.226562 L 156.511719 41.496094 C 156.511719 42.027344 156.371094 42.4375 156.085938 42.730469 C 155.800781 43.019531 155.324219 43.167969 154.648438 43.167969 C 153.972656 43.167969 153.492188 43.019531 153.203125 42.730469 Z M 153.203125 42.730469 " fill-opacity="1" fill-rule="nonzero"/><path fill="#082742" d="M 157.878906 39.230469 L 159.402344 39.230469 C 159.949219 39.230469 160.371094 39.324219 160.671875 39.515625 C 160.972656 39.710938 161.125 40.011719 161.125 40.425781 C 161.125 41.222656 160.550781 41.621094 159.402344 41.621094 L 158.578125 41.621094 L 158.578125 43.113281 L 157.878906 43.113281 Z M 159.410156 41.324219 C 159.742188 41.324219 160 41.253906 160.167969 41.113281 C 160.339844 40.972656 160.425781 40.746094 160.425781 40.425781 C 160.425781 40.109375 160.339844 39.878906 160.167969 39.738281 C 160 39.59375 159.742188 39.523438 159.410156 39.523438 L 158.578125 39.523438 L 158.578125 41.324219 Z M 159.410156 41.324219 " fill-opacity="1" fill-rule="nonzero"/></svg>