<svg xmlns="http://www.w3.org/2000/svg" xmlns:xlink="http://www.w3.org/1999/xlink" width="220" zoomAndPan="magnify" viewBox="0 0 165 82.499998" height="110" preserveAspectRatio="xMidYMid meet" version="1.0"><defs><clipPath id="47ff90488f"><path d="M 0.496094 0 L 164.503906 0 L 164.503906 82.003906 L 0.496094 82.003906 Z M 0.496094 0 " clip-rule="nonzero"/></clipPath><clipPath id="4c4872e5d7"><path d="M 136 25.839844 L 141 25.839844 L 141 31 L 136 31 Z M 136 25.839844 " clip-rule="nonzero"/></clipPath><clipPath id="ac84b49d92"><path d="M 8.699219 31 L 21 31 L 21 47 L 8.699219 47 Z M 8.699219 31 " clip-rule="nonzero"/></clipPath><clipPath id="bb2e48de96"><path d="M 142 31 L 156.300781 31 L 156.300781 47 L 142 47 Z M 142 31 " clip-rule="nonzero"/></clipPath><clipPath id="483e49cd9a"><path d="M 82 52 L 87 52 L 87 56.402344 L 82 56.402344 Z M 82 52 " clip-rule="nonzero"/></clipPath><clipPath id="29522381d1"><path d="M 103 52 L 107 52 L 107 56.402344 L 103 56.402344 Z M 103 52 " clip-rule="nonzero"/></clipPath><clipPath id="9595b59e85"><path d="M 141 52 L 146 52 L 146 56.402344 L 141 56.402344 Z M 141 52 " clip-rule="nonzero"/></clipPath><clipPath id="6391813d3a"><path d="M 152 52 L 156.300781 52 L 156.300781 56.402344 L 152 56.402344 Z M 152 52 " clip-rule="nonzero"/></clipPath></defs><g clip-path="url(#47ff90488f)"><path fill="#ffffff" d="M 0.496094 0 L 164.503906 0 L 164.503906 89.457031 L 0.496094 89.457031 Z M 0.496094 0 " fill-opacity="1" fill-rule="nonzero"/><path fill="#ffffff" d="M 0.496094 0 L 164.503906 0 L 164.503906 82.003906 L 0.496094 82.003906 Z M 0.496094 0 " fill-opacity="1" fill-rule="nonzero"/><path fill="#ffffff" d="M 0.496094 0 L 164.503906 0 L 164.503906 82.003906 L 0.496094 82.003906 Z M 0.496094 0 " fill-opacity="1" fill-rule="nonzero"/></g><path fill="#3475b4" d="M 35.265625 31.824219 L 29.925781 48.230469 C 29.742188 48.824219 29.46875 49.371094 29.109375 49.871094 C 28.792969 50.335938 28.394531 50.710938 27.914062 51 C 27.570312 51.1875 27.199219 51.300781 26.808594 51.335938 C 26.375 51.382812 25.9375 51.410156 25.5 51.410156 C 25.082031 51.410156 24.664062 51.371094 24.253906 51.296875 C 23.839844 51.222656 23.433594 51.121094 23.035156 50.984375 C 23.117188 50.539062 23.203125 50.09375 23.285156 49.652344 C 23.371094 49.207031 23.46875 48.761719 23.566406 48.316406 C 23.851562 48.417969 24.140625 48.503906 24.433594 48.574219 C 24.726562 48.640625 25.023438 48.675781 25.320312 48.675781 C 25.757812 48.6875 26.167969 48.589844 26.554688 48.378906 C 26.730469 48.285156 26.863281 48.148438 26.960938 47.976562 C 27.054688 47.800781 27.097656 47.609375 27.082031 47.410156 C 27.074219 47.167969 27.03125 46.925781 26.957031 46.695312 L 22.074219 31.824219 L 25.472656 31.824219 L 28.679688 41.84375 L 31.808594 31.824219 Z M 35.265625 31.824219 " fill-opacity="1" fill-rule="nonzero"/><path fill="#3475b4" d="M 49.152344 46.386719 L 45.878906 46.386719 L 45.878906 37.285156 C 45.878906 36.378906 45.667969 35.703125 45.242188 35.257812 C 44.820312 34.816406 44.21875 34.59375 43.4375 34.59375 C 43.0625 34.597656 42.707031 34.675781 42.367188 34.835938 C 42.007812 35 41.683594 35.21875 41.394531 35.496094 C 41.105469 35.765625 40.875 36.078125 40.695312 36.433594 C 40.519531 36.765625 40.429688 37.121094 40.429688 37.5 L 40.429688 46.394531 L 37.222656 46.394531 L 37.222656 31.824219 L 40.429688 31.824219 L 40.429688 33.003906 C 40.914062 32.511719 41.46875 32.121094 42.09375 31.835938 C 42.753906 31.542969 43.445312 31.402344 44.167969 31.414062 C 44.914062 31.398438 45.636719 31.519531 46.335938 31.777344 C 46.933594 32.003906 47.453125 32.347656 47.902344 32.804688 C 48.324219 33.253906 48.636719 33.769531 48.839844 34.355469 C 49.058594 34.984375 49.164062 35.632812 49.160156 36.300781 Z M 49.152344 46.386719 " fill-opacity="1" fill-rule="nonzero"/><path fill="#3475b4" d="M 90.019531 46.359375 C 89.628906 46.460938 89.175781 46.570312 88.660156 46.679688 C 88.050781 46.800781 87.433594 46.855469 86.816406 46.847656 C 86.355469 46.84375 85.894531 46.796875 85.445312 46.707031 C 84.972656 46.613281 84.542969 46.429688 84.144531 46.160156 C 83.734375 45.875 83.417969 45.511719 83.191406 45.066406 C 82.921875 44.492188 82.804688 43.890625 82.828125 43.257812 L 82.828125 34.59375 L 80.429688 34.59375 L 80.429688 31.824219 L 82.824219 31.824219 L 82.824219 27.875 L 86.050781 26.417969 L 86.050781 31.824219 L 89.789062 31.824219 L 89.789062 34.59375 L 86.050781 34.59375 L 86.050781 41.976562 C 86.050781 42.660156 86.167969 43.140625 86.394531 43.410156 C 86.625 43.695312 87.089844 43.820312 87.8125 43.820312 C 88.390625 43.820312 88.945312 43.71875 89.484375 43.511719 Z M 90.019531 46.359375 " fill-opacity="1" fill-rule="nonzero"/><path fill="#3475b4" d="M 103.980469 46.386719 L 100.828125 46.386719 L 100.828125 37.027344 C 100.828125 36.140625 100.632812 35.5 100.242188 35.105469 C 99.851562 34.710938 99.300781 34.515625 98.585938 34.515625 C 98.1875 34.515625 97.796875 34.578125 97.417969 34.707031 C 97.054688 34.832031 96.71875 35.015625 96.414062 35.253906 C 96.113281 35.488281 95.882812 35.773438 95.714844 36.113281 C 95.539062 36.480469 95.453125 36.863281 95.460938 37.269531 L 95.460938 46.394531 L 92.308594 46.394531 L 92.308594 26.363281 L 95.460938 26.363281 L 95.460938 33.015625 C 95.992188 32.515625 96.585938 32.117188 97.25 31.820312 C 97.847656 31.566406 98.46875 31.4375 99.117188 31.4375 C 100.683594 31.4375 101.886719 31.863281 102.730469 32.714844 C 103.574219 33.566406 103.996094 34.722656 103.996094 36.1875 Z M 103.980469 46.386719 " fill-opacity="1" fill-rule="nonzero"/><path fill="#3475b4" d="M 136.738281 32.371094 L 139.992188 32.371094 L 139.992188 46.386719 L 136.738281 46.386719 Z M 136.738281 32.371094 " fill-opacity="1" fill-rule="nonzero"/><g clip-path="url(#4c4872e5d7)"><path fill="#3475b4" d="M 138.375 25.839844 L 136.242188 27.988281 L 138.375 30.140625 L 140.511719 27.988281 Z M 138.375 25.839844 " fill-opacity="1" fill-rule="nonzero"/></g><g clip-path="url(#ac84b49d92)"><path fill="#3475b4" d="M 20.414062 40.566406 C 20.203125 40.101562 19.910156 39.695312 19.53125 39.347656 C 19.152344 39.007812 18.730469 38.734375 18.265625 38.527344 C 17.789062 38.3125 17.296875 38.136719 16.789062 38.003906 L 14.136719 37.335938 C 13.472656 37.164062 13.046875 36.949219 12.847656 36.695312 C 12.667969 36.480469 12.570312 36.230469 12.554688 35.949219 C 12.554688 35.707031 12.613281 35.480469 12.738281 35.269531 C 12.859375 35.0625 13.027344 34.898438 13.242188 34.785156 C 13.796875 34.476562 14.390625 34.335938 15.023438 34.363281 C 15.679688 34.359375 16.308594 34.480469 16.917969 34.726562 C 17.402344 34.925781 17.867188 35.167969 18.308594 35.457031 L 20.425781 33.324219 C 19.640625 32.683594 18.765625 32.207031 17.804688 31.886719 C 16.835938 31.570312 15.839844 31.410156 14.820312 31.414062 C 14.105469 31.414062 13.410156 31.511719 12.722656 31.710938 C 12.0625 31.890625 11.457031 32.1875 10.902344 32.59375 C 10.371094 32.988281 9.949219 33.480469 9.636719 34.066406 C 9.296875 34.710938 9.132812 35.402344 9.148438 36.132812 C 9.136719 36.683594 9.238281 37.210938 9.453125 37.71875 C 9.648438 38.171875 9.921875 38.570312 10.273438 38.910156 C 10.621094 39.246094 11.011719 39.519531 11.445312 39.734375 C 11.871094 39.945312 12.316406 40.101562 12.777344 40.207031 L 15.296875 40.847656 C 15.8125 40.964844 16.296875 41.171875 16.742188 41.460938 C 17.101562 41.71875 17.285156 42.027344 17.285156 42.386719 C 17.300781 42.621094 17.253906 42.84375 17.140625 43.050781 C 17.027344 43.253906 16.867188 43.414062 16.660156 43.527344 C 16.246094 43.761719 15.65625 43.875 14.894531 43.875 C 14.207031 43.863281 13.539062 43.746094 12.886719 43.53125 C 12.195312 43.3125 11.570312 42.96875 11.019531 42.496094 L 8.828125 44.703125 C 9.648438 45.441406 10.582031 45.988281 11.625 46.34375 C 12.664062 46.679688 13.726562 46.847656 14.820312 46.839844 C 15.566406 46.84375 16.304688 46.753906 17.03125 46.570312 C 17.710938 46.40625 18.34375 46.132812 18.925781 45.75 C 19.476562 45.386719 19.917969 44.917969 20.25 44.34375 C 20.597656 43.710938 20.761719 43.03125 20.746094 42.308594 C 20.761719 41.703125 20.652344 41.121094 20.414062 40.566406 " fill-opacity="1" fill-rule="nonzero"/></g><path fill="#3475b4" d="M 55.460938 36.488281 C 55.609375 36.082031 55.828125 35.71875 56.121094 35.398438 C 56.417969 35.074219 56.765625 34.820312 57.164062 34.640625 C 57.59375 34.445312 58.042969 34.351562 58.511719 34.359375 C 58.980469 34.351562 59.429688 34.4375 59.859375 34.613281 C 60.257812 34.78125 60.609375 35.015625 60.917969 35.320312 C 61.21875 35.628906 61.4375 35.984375 61.578125 36.394531 C 61.726562 36.839844 61.789062 37.296875 61.765625 37.765625 L 55.230469 37.765625 C 55.230469 37.328125 55.304688 36.902344 55.457031 36.492188 M 61.964844 42.535156 C 61.558594 42.902344 61.101562 43.183594 60.589844 43.375 C 60.042969 43.546875 59.484375 43.625 58.910156 43.617188 C 57.828125 43.617188 56.976562 43.339844 56.355469 42.785156 C 55.738281 42.230469 55.375 41.398438 55.273438 40.285156 L 65.03125 40.285156 L 65.058594 39.695312 C 65.113281 38.601562 65.023438 37.523438 64.777344 36.453125 C 64.566406 35.503906 64.179688 34.632812 63.621094 33.835938 C 63.089844 33.089844 62.417969 32.503906 61.605469 32.082031 C 60.6875 31.625 59.714844 31.414062 58.691406 31.4375 C 57.652344 31.417969 56.65625 31.617188 55.699219 32.035156 C 54.863281 32.410156 54.148438 32.945312 53.550781 33.648438 C 52.957031 34.363281 52.523438 35.164062 52.253906 36.054688 C 51.957031 37.035156 51.8125 38.035156 51.820312 39.058594 C 51.8125 40.101562 51.96875 41.117188 52.292969 42.105469 C 52.589844 43.019531 53.046875 43.839844 53.667969 44.570312 C 54.285156 45.289062 55.027344 45.839844 55.890625 46.222656 C 56.867188 46.644531 57.882812 46.847656 58.941406 46.824219 C 59.910156 46.832031 60.847656 46.65625 61.75 46.296875 C 62.652344 45.9375 63.453125 45.421875 64.15625 44.746094 L 64.121094 44.707031 Z M 61.964844 42.535156 " fill-opacity="1" fill-rule="nonzero"/><path fill="#3475b4" d="M 110.3125 36.488281 C 110.460938 36.082031 110.683594 35.71875 110.976562 35.398438 C 111.621094 34.691406 112.417969 34.347656 113.367188 34.359375 C 113.832031 34.351562 114.28125 34.4375 114.714844 34.613281 C 115.113281 34.78125 115.464844 35.015625 115.769531 35.320312 C 116.070312 35.628906 116.292969 35.984375 116.429688 36.394531 C 116.578125 36.839844 116.640625 37.296875 116.621094 37.765625 L 110.085938 37.765625 C 110.085938 37.328125 110.160156 36.902344 110.3125 36.492188 M 116.820312 42.535156 C 116.417969 42.902344 115.957031 43.183594 115.449219 43.375 C 114.898438 43.546875 114.339844 43.625 113.769531 43.617188 C 112.683594 43.617188 111.832031 43.339844 111.214844 42.785156 C 110.597656 42.230469 110.234375 41.398438 110.128906 40.285156 L 119.890625 40.285156 L 119.917969 39.695312 C 119.972656 38.601562 119.882812 37.519531 119.636719 36.453125 C 119.425781 35.503906 119.039062 34.632812 118.480469 33.835938 C 117.941406 33.085938 117.261719 32.503906 116.445312 32.082031 C 115.527344 31.628906 114.554688 31.414062 113.53125 31.441406 C 112.5 31.421875 111.507812 31.617188 110.554688 32.035156 C 109.71875 32.40625 109.003906 32.945312 108.40625 33.648438 C 107.8125 34.363281 107.378906 35.164062 107.109375 36.054688 C 106.8125 37.035156 106.667969 38.035156 106.675781 39.058594 C 106.667969 40.097656 106.828125 41.113281 107.152344 42.105469 C 107.449219 43.015625 107.90625 43.835938 108.527344 44.566406 C 109.148438 45.28125 109.886719 45.835938 110.75 46.21875 C 111.726562 46.640625 112.742188 46.84375 113.804688 46.820312 C 114.773438 46.828125 115.710938 46.652344 116.609375 46.292969 C 117.511719 45.933594 118.3125 45.417969 119.015625 44.742188 L 118.984375 44.703125 Z M 116.820312 42.535156 " fill-opacity="1" fill-rule="nonzero"/><path fill="#3475b4" d="M 77.691406 39.347656 C 77.3125 39.007812 76.890625 38.734375 76.425781 38.527344 C 75.945312 38.3125 75.453125 38.136719 74.945312 38.003906 L 72.296875 37.335938 C 71.636719 37.164062 71.214844 36.949219 71.011719 36.695312 C 70.828125 36.480469 70.730469 36.234375 70.714844 35.949219 C 70.714844 35.707031 70.773438 35.480469 70.898438 35.269531 C 71.019531 35.0625 71.191406 34.898438 71.402344 34.785156 C 71.957031 34.476562 72.550781 34.335938 73.183594 34.363281 C 73.839844 34.359375 74.472656 34.480469 75.078125 34.726562 C 75.566406 34.925781 76.03125 35.167969 76.476562 35.457031 L 78.59375 33.332031 C 77.808594 32.6875 76.933594 32.207031 75.96875 31.886719 C 75 31.570312 74.003906 31.410156 72.980469 31.414062 C 72.269531 31.414062 71.570312 31.511719 70.886719 31.710938 C 70.226562 31.890625 69.617188 32.1875 69.0625 32.59375 C 68.53125 32.988281 68.105469 33.480469 67.789062 34.066406 C 67.453125 34.714844 67.292969 35.402344 67.3125 36.132812 C 67.300781 36.683594 67.402344 37.210938 67.617188 37.71875 C 67.8125 38.171875 68.089844 38.570312 68.441406 38.910156 C 68.789062 39.246094 69.179688 39.519531 69.613281 39.734375 C 70.039062 39.945312 70.484375 40.101562 70.949219 40.207031 L 73.464844 40.847656 C 73.980469 40.96875 74.460938 41.171875 74.902344 41.460938 C 75.25 41.667969 75.433594 41.976562 75.445312 42.386719 C 75.460938 42.621094 75.414062 42.84375 75.300781 43.046875 C 75.1875 43.253906 75.027344 43.414062 74.824219 43.527344 C 74.40625 43.757812 73.816406 43.871094 73.054688 43.871094 C 72.367188 43.859375 71.699219 43.742188 71.046875 43.527344 C 70.355469 43.308594 69.730469 42.964844 69.179688 42.496094 L 66.988281 44.703125 C 67.808594 45.445312 68.742188 45.992188 69.789062 46.34375 C 70.824219 46.679688 71.886719 46.847656 72.976562 46.839844 C 73.726562 46.84375 74.464844 46.753906 75.191406 46.570312 C 75.871094 46.410156 76.5 46.136719 77.085938 45.75 C 77.636719 45.386719 78.078125 44.917969 78.410156 44.34375 C 78.757812 43.707031 78.921875 43.027344 78.902344 42.304688 C 78.921875 41.699219 78.8125 41.117188 78.574219 40.558594 C 78.359375 40.097656 78.066406 39.691406 77.691406 39.347656 " fill-opacity="1" fill-rule="nonzero"/><path fill="#3475b4" d="M 132.546875 39.347656 C 132.167969 39.007812 131.746094 38.734375 131.28125 38.527344 C 130.800781 38.3125 130.308594 38.136719 129.800781 38.003906 L 127.148438 37.335938 C 126.488281 37.164062 126.0625 36.949219 125.863281 36.695312 C 125.679688 36.480469 125.582031 36.234375 125.566406 35.949219 C 125.566406 35.707031 125.625 35.480469 125.75 35.269531 C 125.871094 35.0625 126.039062 34.898438 126.253906 34.785156 C 126.808594 34.476562 127.402344 34.335938 128.035156 34.363281 C 128.691406 34.355469 129.324219 34.480469 129.929688 34.726562 C 130.417969 34.925781 130.882812 35.167969 131.324219 35.457031 L 133.445312 33.320312 C 132.65625 32.675781 131.78125 32.195312 130.820312 31.878906 C 129.847656 31.558594 128.851562 31.402344 127.832031 31.40625 C 127.121094 31.402344 126.421875 31.503906 125.738281 31.699219 C 125.078125 31.882812 124.46875 32.175781 123.914062 32.582031 C 123.382812 32.980469 122.957031 33.46875 122.640625 34.058594 C 122.300781 34.707031 122.136719 35.398438 122.15625 36.132812 C 122.144531 36.683594 122.246094 37.210938 122.460938 37.71875 C 122.65625 38.171875 122.933594 38.570312 123.285156 38.910156 C 123.632812 39.246094 124.023438 39.519531 124.457031 39.734375 C 124.882812 39.945312 125.328125 40.101562 125.792969 40.207031 L 128.308594 40.847656 C 128.824219 40.96875 129.304688 41.171875 129.746094 41.460938 C 130.109375 41.71875 130.289062 42.027344 130.289062 42.386719 C 130.304688 42.621094 130.257812 42.84375 130.144531 43.050781 C 130.03125 43.253906 129.871094 43.414062 129.664062 43.527344 C 129.25 43.757812 128.660156 43.871094 127.898438 43.871094 C 127.210938 43.859375 126.539062 43.742188 125.886719 43.527344 C 125.195312 43.308594 124.574219 42.964844 124.019531 42.496094 L 121.828125 44.703125 C 122.648438 45.445312 123.582031 45.992188 124.628906 46.34375 C 125.667969 46.679688 126.730469 46.847656 127.820312 46.839844 C 128.570312 46.84375 129.308594 46.753906 130.035156 46.570312 C 130.710938 46.410156 131.34375 46.136719 131.925781 45.75 C 132.480469 45.386719 132.921875 44.917969 133.25 44.34375 C 133.601562 43.707031 133.765625 43.027344 133.746094 42.304688 C 133.761719 41.699219 133.652344 41.117188 133.414062 40.558594 C 133.203125 40.09375 132.910156 39.6875 132.535156 39.34375 " fill-opacity="1" fill-rule="nonzero"/><g clip-path="url(#bb2e48de96)"><path fill="#3475b4" d="M 151.539062 42.695312 C 151.234375 43.160156 150.832031 43.515625 150.332031 43.757812 C 149.550781 44.152344 148.734375 44.238281 147.890625 44.015625 C 147.601562 43.941406 147.339844 43.816406 147.097656 43.640625 C 146.863281 43.476562 146.671875 43.273438 146.523438 43.027344 C 146.371094 42.757812 146.296875 42.464844 146.308594 42.15625 C 146.292969 41.726562 146.414062 41.34375 146.667969 41 C 146.914062 40.6875 147.210938 40.441406 147.558594 40.257812 C 147.925781 40.066406 148.3125 39.929688 148.71875 39.847656 C 149.109375 39.765625 149.503906 39.722656 149.902344 39.71875 C 150.171875 39.71875 150.441406 39.71875 150.710938 39.734375 C 150.996094 39.742188 151.273438 39.773438 151.554688 39.824219 Z M 155.199219 43.96875 C 154.957031 43.667969 154.847656 43.320312 154.871094 42.929688 L 154.871094 36.847656 C 154.875 36.125 154.804688 35.40625 154.65625 34.695312 C 154.519531 34.050781 154.25 33.464844 153.851562 32.945312 C 153.421875 32.40625 152.890625 32.015625 152.25 31.765625 C 151.574219 31.484375 150.699219 31.339844 149.628906 31.34375 C 149.167969 31.347656 148.710938 31.386719 148.257812 31.457031 C 147.738281 31.539062 147.226562 31.652344 146.71875 31.804688 C 146.203125 31.953125 145.699219 32.136719 145.207031 32.351562 C 144.75 32.546875 144.316406 32.789062 143.910156 33.078125 L 143.910156 33.09375 L 146.027344 35.222656 C 146.402344 35.054688 146.769531 34.902344 147.125 34.773438 C 147.8125 34.523438 148.519531 34.402344 149.25 34.40625 C 149.996094 34.40625 150.59375 34.605469 151.042969 34.996094 C 151.492188 35.390625 151.683594 35.945312 151.617188 36.664062 L 151.5625 37.175781 C 151.324219 37.144531 151.078125 37.117188 150.828125 37.101562 C 150.574219 37.082031 150.316406 37.074219 150.0625 37.074219 C 149.570312 37.074219 149.078125 37.105469 148.589844 37.164062 C 148.054688 37.230469 147.527344 37.34375 147.011719 37.5 C 146.484375 37.652344 145.980469 37.863281 145.5 38.125 C 145.019531 38.386719 144.589844 38.714844 144.214844 39.113281 C 143.828125 39.523438 143.53125 39.988281 143.324219 40.511719 C 143.089844 41.117188 142.980469 41.746094 142.996094 42.394531 C 142.980469 43.074219 143.121094 43.71875 143.414062 44.332031 C 143.683594 44.875 144.054688 45.339844 144.53125 45.714844 C 145.027344 46.097656 145.574219 46.375 146.171875 46.546875 C 146.820312 46.738281 147.484375 46.832031 148.160156 46.832031 C 148.996094 46.851562 149.800781 46.710938 150.578125 46.40625 C 151.183594 46.160156 151.734375 45.824219 152.230469 45.394531 C 152.480469 45.804688 152.804688 46.136719 153.207031 46.394531 C 153.640625 46.675781 154.109375 46.847656 154.617188 46.90625 L 156.09375 44.472656 C 155.742188 44.402344 155.445312 44.238281 155.203125 43.972656 " fill-opacity="1" fill-rule="nonzero"/></g><path fill="#3376b5" d="M 68.21875 54.238281 C 68.207031 54.289062 68.203125 54.339844 68.203125 54.394531 C 68.195312 54.457031 68.210938 54.511719 68.257812 54.554688 C 68.308594 54.589844 68.367188 54.605469 68.429688 54.597656 C 68.601562 54.585938 68.765625 54.539062 68.917969 54.460938 L 69.023438 55.058594 C 68.773438 55.199219 68.507812 55.269531 68.226562 55.269531 C 68.011719 55.28125 67.820312 55.222656 67.652344 55.085938 C 67.492188 54.941406 67.421875 54.757812 67.4375 54.542969 C 67.4375 54.460938 67.441406 54.378906 67.457031 54.300781 L 67.761719 52.792969 L 67.332031 52.792969 L 67.4375 52.238281 L 67.871094 52.238281 L 68.039062 51.378906 L 68.792969 51.378906 L 68.613281 52.238281 L 69.503906 52.238281 L 69.402344 52.792969 L 68.5 52.792969 Z M 68.21875 54.238281 " fill-opacity="1" fill-rule="nonzero"/><path fill="#3376b5" d="M 72.566406 52.339844 C 72.777344 52.535156 72.878906 52.78125 72.867188 53.070312 C 72.863281 53.175781 72.851562 53.285156 72.832031 53.390625 L 72.46875 55.230469 L 71.707031 55.230469 L 72.050781 53.5 C 72.0625 53.441406 72.066406 53.378906 72.066406 53.320312 C 72.078125 53.15625 72.023438 53.015625 71.90625 52.902344 C 71.773438 52.789062 71.625 52.742188 71.453125 52.75 C 71.222656 52.75 71.027344 52.828125 70.859375 52.988281 C 70.679688 53.148438 70.570312 53.347656 70.527344 53.589844 L 70.199219 55.242188 L 69.433594 55.242188 L 70.289062 50.90625 L 71.050781 50.90625 L 70.734375 52.558594 C 70.84375 52.425781 70.972656 52.316406 71.125 52.234375 C 71.277344 52.152344 71.4375 52.101562 71.609375 52.082031 C 71.777344 52.0625 71.945312 52.074219 72.113281 52.121094 C 72.277344 52.167969 72.429688 52.242188 72.566406 52.34375 Z M 72.566406 52.339844 " fill-opacity="1" fill-rule="nonzero"/><path fill="#3376b5" d="M 75.96875 52.449219 C 76.238281 52.726562 76.363281 53.058594 76.34375 53.441406 C 76.34375 53.609375 76.324219 53.773438 76.285156 53.9375 L 73.925781 53.9375 C 73.933594 54.148438 74.015625 54.328125 74.175781 54.46875 C 74.347656 54.609375 74.542969 54.675781 74.765625 54.664062 C 75.070312 54.664062 75.34375 54.570312 75.582031 54.382812 L 75.945312 54.84375 C 75.601562 55.140625 75.203125 55.28125 74.75 55.269531 C 74.460938 55.273438 74.1875 55.214844 73.925781 55.085938 C 73.695312 54.976562 73.515625 54.808594 73.382812 54.589844 C 73.25 54.355469 73.183594 54.105469 73.1875 53.835938 C 73.183594 53.519531 73.261719 53.21875 73.417969 52.941406 C 73.570312 52.671875 73.785156 52.460938 74.054688 52.3125 C 74.332031 52.152344 74.632812 52.074219 74.957031 52.078125 C 75.34375 52.0625 75.679688 52.1875 75.96875 52.449219 Z M 75.484375 52.886719 C 75.335938 52.738281 75.164062 52.671875 74.957031 52.6875 C 74.734375 52.6875 74.535156 52.753906 74.359375 52.890625 C 74.175781 53.035156 74.050781 53.214844 73.980469 53.4375 L 75.652344 53.4375 C 75.675781 53.230469 75.617188 53.046875 75.484375 52.886719 Z M 75.484375 52.886719 " fill-opacity="1" fill-rule="nonzero"/><path fill="#3376b5" d="M 78.386719 55.09375 C 78.191406 54.972656 78.039062 54.808594 77.9375 54.601562 C 77.828125 54.371094 77.773438 54.128906 77.78125 53.871094 C 77.773438 53.550781 77.847656 53.246094 78 52.960938 C 78.144531 52.691406 78.34375 52.476562 78.605469 52.316406 C 78.867188 52.15625 79.152344 52.074219 79.457031 52.078125 C 79.695312 52.070312 79.914062 52.125 80.121094 52.246094 C 80.304688 52.359375 80.4375 52.523438 80.511719 52.726562 L 80.886719 50.90625 L 81.636719 50.90625 L 80.773438 55.242188 L 80.023438 55.242188 L 80.113281 54.8125 C 79.824219 55.125 79.46875 55.277344 79.046875 55.273438 C 78.808594 55.277344 78.589844 55.21875 78.386719 55.09375 Z M 79.832031 54.5 C 79.988281 54.402344 80.109375 54.269531 80.195312 54.105469 C 80.285156 53.933594 80.332031 53.753906 80.328125 53.558594 C 80.339844 53.332031 80.269531 53.136719 80.117188 52.964844 C 79.964844 52.804688 79.78125 52.730469 79.558594 52.742188 C 79.375 52.738281 79.207031 52.789062 79.046875 52.886719 C 78.894531 52.988281 78.773438 53.121094 78.6875 53.285156 C 78.59375 53.453125 78.550781 53.636719 78.550781 53.832031 C 78.539062 54.054688 78.609375 54.253906 78.761719 54.417969 C 78.917969 54.578125 79.105469 54.652344 79.324219 54.640625 C 79.507812 54.644531 79.675781 54.597656 79.832031 54.5 Z M 79.832031 54.5 " fill-opacity="1" fill-rule="nonzero"/><path fill="#3376b5" d="M 82.941406 52.109375 L 82.320312 55.234375 L 81.570312 55.234375 L 82.1875 52.109375 Z M 83.074219 50.871094 C 83.144531 50.949219 83.179688 51.039062 83.175781 51.140625 C 83.171875 51.285156 83.121094 51.410156 83.019531 51.511719 C 82.917969 51.617188 82.796875 51.667969 82.652344 51.671875 C 82.550781 51.675781 82.464844 51.640625 82.394531 51.566406 C 82.328125 51.492188 82.292969 51.402344 82.296875 51.296875 C 82.292969 51.148438 82.347656 51.023438 82.453125 50.921875 C 82.554688 50.820312 82.671875 50.765625 82.816406 50.765625 C 82.917969 50.761719 83.003906 50.796875 83.074219 50.871094 Z M 83.074219 50.871094 " fill-opacity="1" fill-rule="nonzero"/><g clip-path="url(#483e49cd9a)"><path fill="#3376b5" d="M 82.875 55.964844 L 83.210938 55.445312 C 83.488281 55.664062 83.800781 55.769531 84.152344 55.761719 C 84.40625 55.773438 84.644531 55.714844 84.863281 55.578125 C 85.046875 55.453125 85.164062 55.277344 85.210938 55.054688 L 85.308594 54.664062 C 85.179688 54.796875 85.027344 54.898438 84.855469 54.972656 C 84.683594 55.046875 84.5 55.082031 84.3125 55.078125 C 84.09375 55.082031 83.886719 55.027344 83.695312 54.914062 C 83.507812 54.800781 83.367188 54.648438 83.273438 54.453125 C 83.167969 54.238281 83.117188 54.015625 83.121094 53.777344 C 83.117188 53.46875 83.1875 53.183594 83.332031 52.914062 C 83.464844 52.65625 83.65625 52.453125 83.898438 52.304688 C 84.144531 52.152344 84.414062 52.078125 84.703125 52.082031 C 84.921875 52.074219 85.128906 52.125 85.324219 52.234375 C 85.492188 52.335938 85.613281 52.484375 85.683594 52.671875 L 85.808594 52.109375 L 86.5625 52.109375 L 85.945312 55.117188 C 85.878906 55.515625 85.683594 55.832031 85.363281 56.066406 C 84.996094 56.308594 84.597656 56.417969 84.160156 56.398438 C 83.683594 56.394531 83.257812 56.25 82.875 55.964844 Z M 85.0625 54.324219 C 85.371094 54.132812 85.527344 53.855469 85.523438 53.488281 C 85.535156 53.285156 85.46875 53.105469 85.332031 52.953125 C 85.191406 52.808594 85.023438 52.742188 84.820312 52.75 C 84.65625 52.75 84.5 52.796875 84.359375 52.886719 C 84.214844 52.976562 84.101562 53.097656 84.019531 53.25 C 83.9375 53.40625 83.894531 53.570312 83.894531 53.746094 C 83.886719 53.945312 83.949219 54.121094 84.085938 54.269531 C 84.230469 54.410156 84.402344 54.472656 84.597656 54.464844 C 84.765625 54.460938 84.921875 54.414062 85.0625 54.320312 Z M 85.0625 54.324219 " fill-opacity="1" fill-rule="nonzero"/></g><path fill="#3376b5" d="M 88.039062 52.109375 L 87.414062 55.234375 L 86.664062 55.234375 L 87.28125 52.109375 Z M 88.171875 50.871094 C 88.238281 50.949219 88.273438 51.039062 88.269531 51.140625 C 88.265625 51.285156 88.214844 51.410156 88.113281 51.511719 C 88.011719 51.617188 87.890625 51.667969 87.746094 51.671875 C 87.644531 51.675781 87.558594 51.640625 87.488281 51.566406 C 87.421875 51.492188 87.386719 51.402344 87.390625 51.296875 C 87.386719 51.148438 87.441406 51.023438 87.546875 50.921875 C 87.648438 50.820312 87.765625 50.765625 87.910156 50.765625 C 88.011719 50.761719 88.101562 50.796875 88.175781 50.871094 Z M 88.171875 50.871094 " fill-opacity="1" fill-rule="nonzero"/><path fill="#3376b5" d="M 89.257812 54.238281 C 89.246094 54.289062 89.242188 54.339844 89.242188 54.394531 C 89.234375 54.457031 89.25 54.511719 89.296875 54.554688 C 89.347656 54.589844 89.40625 54.605469 89.46875 54.597656 C 89.640625 54.585938 89.804688 54.539062 89.957031 54.460938 L 90.0625 55.058594 C 89.8125 55.199219 89.546875 55.269531 89.265625 55.269531 C 89.050781 55.28125 88.859375 55.222656 88.691406 55.085938 C 88.53125 54.941406 88.460938 54.757812 88.472656 54.542969 C 88.472656 54.460938 88.480469 54.378906 88.496094 54.300781 L 88.800781 52.792969 L 88.355469 52.792969 L 88.460938 52.238281 L 88.898438 52.238281 L 89.066406 51.378906 L 89.820312 51.378906 L 89.640625 52.238281 L 90.53125 52.238281 L 90.429688 52.792969 L 89.527344 52.792969 Z M 89.257812 54.238281 " fill-opacity="1" fill-rule="nonzero"/><path fill="#3376b5" d="M 91.035156 55.09375 C 90.835938 54.972656 90.6875 54.808594 90.585938 54.601562 C 90.472656 54.371094 90.421875 54.128906 90.425781 53.871094 C 90.421875 53.550781 90.496094 53.246094 90.648438 52.960938 C 90.789062 52.691406 90.992188 52.476562 91.253906 52.316406 C 91.515625 52.152344 91.800781 52.074219 92.109375 52.078125 C 92.34375 52.070312 92.5625 52.128906 92.765625 52.246094 C 92.953125 52.359375 93.082031 52.523438 93.160156 52.726562 L 93.289062 52.109375 L 94.042969 52.109375 L 93.417969 55.234375 L 92.667969 55.234375 L 92.753906 54.808594 C 92.464844 55.117188 92.109375 55.273438 91.6875 55.269531 C 91.453125 55.273438 91.234375 55.214844 91.035156 55.09375 Z M 92.480469 54.5 C 92.636719 54.402344 92.757812 54.269531 92.839844 54.105469 C 92.933594 53.933594 92.976562 53.753906 92.976562 53.558594 C 92.984375 53.332031 92.914062 53.136719 92.765625 52.964844 C 92.613281 52.804688 92.425781 52.730469 92.207031 52.742188 C 92.023438 52.738281 91.851562 52.789062 91.695312 52.886719 C 91.542969 52.988281 91.421875 53.121094 91.332031 53.285156 C 91.242188 53.453125 91.195312 53.636719 91.195312 53.832031 C 91.1875 54.054688 91.257812 54.253906 91.410156 54.417969 C 91.5625 54.578125 91.75 54.652344 91.96875 54.640625 C 92.152344 54.644531 92.324219 54.597656 92.476562 54.5 Z M 92.480469 54.5 " fill-opacity="1" fill-rule="nonzero"/><path fill="#3376b5" d="M 95.835938 50.902344 L 94.972656 55.234375 L 94.21875 55.234375 L 95.078125 50.902344 Z M 95.835938 50.902344 " fill-opacity="1" fill-rule="nonzero"/><path fill="#3376b5" d="M 99.84375 52.449219 C 100.113281 52.726562 100.238281 53.058594 100.21875 53.441406 C 100.21875 53.609375 100.199219 53.773438 100.160156 53.9375 L 97.800781 53.9375 C 97.808594 54.148438 97.890625 54.328125 98.046875 54.46875 C 98.222656 54.609375 98.417969 54.675781 98.640625 54.664062 C 98.945312 54.664062 99.214844 54.570312 99.457031 54.382812 L 99.816406 54.84375 C 99.476562 55.140625 99.078125 55.28125 98.628906 55.269531 C 98.335938 55.273438 98.0625 55.214844 97.800781 55.085938 C 97.570312 54.976562 97.390625 54.808594 97.257812 54.589844 C 97.125 54.355469 97.058594 54.105469 97.0625 53.835938 C 97.058594 53.519531 97.136719 53.21875 97.292969 52.941406 C 97.445312 52.671875 97.660156 52.460938 97.925781 52.3125 C 98.207031 52.152344 98.507812 52.074219 98.832031 52.078125 C 99.21875 52.0625 99.554688 52.1875 99.84375 52.449219 Z M 99.355469 52.886719 C 99.210938 52.738281 99.039062 52.675781 98.835938 52.6875 C 98.609375 52.6875 98.410156 52.753906 98.234375 52.890625 C 98.050781 53.035156 97.925781 53.214844 97.855469 53.4375 L 99.523438 53.4375 C 99.546875 53.230469 99.492188 53.046875 99.355469 52.886719 Z M 99.355469 52.886719 " fill-opacity="1" fill-rule="nonzero"/><path fill="#3376b5" d="M 101.367188 52.109375 L 101.800781 53.128906 L 102.683594 52.109375 L 103.527344 52.109375 L 102.222656 53.636719 L 102.964844 55.234375 L 102.09375 55.234375 L 101.636719 54.140625 L 100.65625 55.234375 L 99.796875 55.234375 L 101.207031 53.636719 L 100.503906 52.109375 Z M 101.367188 52.109375 " fill-opacity="1" fill-rule="nonzero"/><g clip-path="url(#29522381d1)"><path fill="#3376b5" d="M 106.367188 52.257812 C 106.5625 52.378906 106.710938 52.539062 106.816406 52.75 C 106.925781 52.976562 106.980469 53.222656 106.976562 53.476562 C 106.980469 53.800781 106.90625 54.101562 106.753906 54.386719 C 106.609375 54.660156 106.410156 54.875 106.152344 55.035156 C 105.890625 55.199219 105.605469 55.277344 105.300781 55.273438 C 105.0625 55.28125 104.84375 55.226562 104.636719 55.105469 C 104.449219 54.988281 104.320312 54.824219 104.242188 54.617188 L 103.882812 56.371094 L 103.132812 56.371094 L 103.976562 52.113281 L 104.730469 52.113281 L 104.644531 52.539062 C 104.78125 52.394531 104.941406 52.28125 105.125 52.203125 C 105.308594 52.117188 105.503906 52.078125 105.707031 52.074219 C 105.945312 52.074219 106.164062 52.132812 106.367188 52.257812 Z M 104.921875 52.847656 C 104.765625 52.945312 104.644531 53.078125 104.558594 53.242188 C 104.46875 53.414062 104.421875 53.59375 104.425781 53.789062 C 104.414062 54.015625 104.484375 54.210938 104.636719 54.378906 C 104.785156 54.535156 104.96875 54.609375 105.1875 54.601562 C 105.375 54.601562 105.546875 54.554688 105.703125 54.457031 C 105.859375 54.355469 105.984375 54.222656 106.074219 54.058594 C 106.167969 53.890625 106.214844 53.707031 106.210938 53.511719 C 106.222656 53.285156 106.152344 53.089844 106 52.917969 C 105.84375 52.761719 105.65625 52.6875 105.4375 52.695312 C 105.253906 52.695312 105.082031 52.746094 104.929688 52.847656 Z M 104.921875 52.847656 " fill-opacity="1" fill-rule="nonzero"/></g><path fill="#3376b5" d="M 109.972656 52.449219 C 110.242188 52.726562 110.367188 53.058594 110.347656 53.441406 C 110.347656 53.609375 110.328125 53.773438 110.289062 53.9375 L 107.929688 53.9375 C 107.9375 54.148438 108.019531 54.328125 108.175781 54.46875 C 108.355469 54.613281 108.554688 54.675781 108.78125 54.664062 C 109.082031 54.664062 109.355469 54.570312 109.59375 54.382812 L 109.953125 54.84375 C 109.613281 55.140625 109.214844 55.28125 108.761719 55.269531 C 108.472656 55.273438 108.199219 55.214844 107.9375 55.085938 C 107.707031 54.976562 107.527344 54.808594 107.394531 54.589844 C 107.257812 54.355469 107.195312 54.105469 107.199219 53.835938 C 107.195312 53.519531 107.269531 53.21875 107.429688 52.941406 C 107.582031 52.671875 107.792969 52.460938 108.0625 52.3125 C 108.34375 52.152344 108.644531 52.074219 108.96875 52.078125 C 109.351562 52.066406 109.6875 52.191406 109.972656 52.449219 Z M 109.484375 52.886719 C 109.339844 52.738281 109.167969 52.675781 108.964844 52.6875 C 108.738281 52.6875 108.539062 52.753906 108.363281 52.890625 C 108.179688 53.035156 108.054688 53.214844 107.984375 53.4375 L 109.65625 53.4375 C 109.679688 53.230469 109.621094 53.042969 109.484375 52.886719 Z M 109.484375 52.886719 " fill-opacity="1" fill-rule="nonzero"/><path fill="#3376b5" d="M 112.277344 52.234375 C 112.480469 52.132812 112.695312 52.082031 112.925781 52.082031 L 112.828125 52.808594 L 112.730469 52.808594 C 112.457031 52.804688 112.210938 52.886719 111.992188 53.058594 C 111.78125 53.222656 111.640625 53.4375 111.574219 53.699219 L 111.265625 55.234375 L 110.507812 55.234375 L 111.128906 52.109375 L 111.890625 52.109375 L 111.78125 52.671875 C 111.910156 52.484375 112.078125 52.339844 112.277344 52.234375 Z M 112.277344 52.234375 " fill-opacity="1" fill-rule="nonzero"/><path fill="#3376b5" d="M 114.074219 52.109375 L 113.453125 55.234375 L 112.703125 55.234375 L 113.316406 52.109375 Z M 114.210938 50.871094 C 114.277344 50.949219 114.308594 51.039062 114.308594 51.140625 C 114.304688 51.285156 114.253906 51.410156 114.152344 51.511719 C 114.050781 51.617188 113.929688 51.667969 113.785156 51.671875 C 113.683594 51.675781 113.597656 51.640625 113.527344 51.566406 C 113.457031 51.492188 113.425781 51.402344 113.429688 51.296875 C 113.425781 51.148438 113.480469 51.023438 113.585938 50.921875 C 113.683594 50.820312 113.804688 50.765625 113.945312 50.765625 C 114.046875 50.761719 114.132812 50.796875 114.203125 50.871094 Z M 114.210938 50.871094 " fill-opacity="1" fill-rule="nonzero"/><path fill="#3376b5" d="M 117.042969 52.449219 C 117.3125 52.726562 117.4375 53.058594 117.417969 53.441406 C 117.417969 53.609375 117.398438 53.773438 117.359375 53.9375 L 115 53.9375 C 115.007812 54.148438 115.089844 54.328125 115.25 54.46875 C 115.421875 54.609375 115.621094 54.675781 115.84375 54.664062 C 116.144531 54.664062 116.417969 54.570312 116.65625 54.382812 L 117.019531 54.84375 C 116.675781 55.140625 116.277344 55.28125 115.828125 55.269531 C 115.539062 55.273438 115.261719 55.214844 115 55.085938 C 114.769531 54.976562 114.589844 54.808594 114.457031 54.589844 C 114.324219 54.355469 114.257812 54.105469 114.261719 53.835938 C 114.257812 53.519531 114.335938 53.21875 114.492188 52.941406 C 114.648438 52.671875 114.859375 52.460938 115.128906 52.3125 C 115.40625 52.152344 115.710938 52.074219 116.03125 52.078125 C 116.417969 52.0625 116.757812 52.1875 117.042969 52.449219 Z M 116.550781 52.886719 C 116.40625 52.738281 116.234375 52.675781 116.027344 52.6875 C 115.804688 52.6875 115.605469 52.753906 115.425781 52.890625 C 115.246094 53.035156 115.121094 53.214844 115.050781 53.4375 L 116.730469 53.4375 C 116.753906 53.226562 116.691406 53.042969 116.550781 52.886719 Z M 116.550781 52.886719 " fill-opacity="1" fill-rule="nonzero"/><path fill="#3376b5" d="M 120.707031 52.339844 C 120.917969 52.535156 121.019531 52.78125 121.007812 53.070312 C 121.007812 53.175781 120.996094 53.285156 120.972656 53.390625 L 120.609375 55.230469 L 119.851562 55.230469 L 120.195312 53.5 C 120.203125 53.441406 120.210938 53.378906 120.210938 53.320312 C 120.21875 53.15625 120.164062 53.015625 120.046875 52.902344 C 119.917969 52.789062 119.765625 52.742188 119.59375 52.75 C 119.367188 52.75 119.175781 52.824219 119.011719 52.980469 C 118.832031 53.140625 118.722656 53.34375 118.679688 53.582031 L 118.34375 55.234375 L 117.589844 55.234375 L 118.199219 52.109375 L 118.964844 52.109375 L 118.878906 52.550781 C 119.132812 52.210938 119.46875 52.050781 119.890625 52.066406 C 120.199219 52.050781 120.472656 52.140625 120.707031 52.339844 Z M 120.707031 52.339844 " fill-opacity="1" fill-rule="nonzero"/><path fill="#3376b5" d="M 121.996094 55.085938 C 121.78125 54.96875 121.613281 54.800781 121.496094 54.585938 C 121.371094 54.351562 121.3125 54.105469 121.316406 53.839844 C 121.3125 53.515625 121.386719 53.210938 121.542969 52.929688 C 121.691406 52.660156 121.902344 52.453125 122.167969 52.308594 C 122.445312 52.15625 122.742188 52.082031 123.058594 52.085938 C 123.320312 52.078125 123.566406 52.128906 123.804688 52.234375 C 124.015625 52.328125 124.1875 52.46875 124.324219 52.660156 L 123.816406 53.097656 C 123.613281 52.851562 123.355469 52.738281 123.039062 52.753906 C 122.660156 52.746094 122.386719 52.914062 122.210938 53.25 C 122.121094 53.417969 122.078125 53.597656 122.085938 53.785156 C 122.074219 54.015625 122.144531 54.210938 122.292969 54.382812 C 122.445312 54.542969 122.628906 54.617188 122.847656 54.609375 C 123.195312 54.628906 123.484375 54.507812 123.71875 54.246094 L 124.15625 54.636719 C 123.996094 54.84375 123.796875 55 123.558594 55.105469 C 123.300781 55.21875 123.03125 55.273438 122.746094 55.269531 C 122.480469 55.273438 122.230469 55.214844 121.996094 55.085938 Z M 121.996094 55.085938 " fill-opacity="1" fill-rule="nonzero"/><path fill="#3376b5" d="M 127.214844 52.449219 C 127.484375 52.726562 127.609375 53.058594 127.589844 53.441406 C 127.589844 53.609375 127.570312 53.773438 127.53125 53.9375 L 125.175781 53.9375 C 125.183594 54.148438 125.269531 54.328125 125.425781 54.46875 C 125.597656 54.609375 125.796875 54.675781 126.015625 54.664062 C 126.320312 54.664062 126.59375 54.570312 126.832031 54.382812 L 127.195312 54.84375 C 126.851562 55.140625 126.453125 55.28125 126.003906 55.269531 C 125.714844 55.273438 125.4375 55.214844 125.175781 55.085938 C 124.945312 54.976562 124.765625 54.808594 124.632812 54.589844 C 124.5 54.355469 124.433594 54.105469 124.4375 53.835938 C 124.433594 53.519531 124.511719 53.21875 124.667969 52.941406 C 124.824219 52.671875 125.035156 52.460938 125.304688 52.3125 C 125.582031 52.152344 125.886719 52.074219 126.207031 52.078125 C 126.59375 52.066406 126.929688 52.1875 127.214844 52.449219 Z M 126.730469 52.886719 C 126.585938 52.738281 126.410156 52.675781 126.207031 52.6875 C 125.984375 52.6875 125.78125 52.753906 125.605469 52.890625 C 125.421875 53.035156 125.296875 53.214844 125.230469 53.4375 L 126.898438 53.4375 C 126.921875 53.230469 126.867188 53.046875 126.734375 52.886719 Z M 126.730469 52.886719 " fill-opacity="1" fill-rule="nonzero"/><path fill="#3376b5" d="M 129.714844 55.085938 C 129.496094 54.96875 129.332031 54.800781 129.214844 54.585938 C 129.089844 54.351562 129.027344 54.105469 129.03125 53.839844 C 129.027344 53.515625 129.101562 53.210938 129.257812 52.929688 C 129.40625 52.660156 129.617188 52.453125 129.882812 52.308594 C 130.160156 52.15625 130.460938 52.082031 130.777344 52.085938 C 131.035156 52.078125 131.285156 52.128906 131.519531 52.234375 C 131.730469 52.328125 131.898438 52.46875 132.03125 52.65625 L 131.527344 53.097656 C 131.324219 52.851562 131.0625 52.734375 130.746094 52.75 C 130.371094 52.746094 130.09375 52.910156 129.917969 53.246094 C 129.832031 53.414062 129.789062 53.59375 129.792969 53.785156 C 129.78125 54.011719 129.851562 54.210938 130.003906 54.378906 C 130.152344 54.539062 130.335938 54.617188 130.554688 54.609375 C 130.90625 54.628906 131.195312 54.507812 131.425781 54.242188 L 131.863281 54.636719 C 131.703125 54.839844 131.503906 54.996094 131.269531 55.101562 C 131.007812 55.214844 130.738281 55.269531 130.457031 55.265625 C 130.191406 55.269531 129.945312 55.210938 129.714844 55.085938 Z M 129.714844 55.085938 " fill-opacity="1" fill-rule="nonzero"/><path fill="#3376b5" d="M 134.738281 52.257812 C 134.960938 52.371094 135.136719 52.539062 135.261719 52.761719 C 135.386719 52.996094 135.445312 53.246094 135.441406 53.511719 C 135.449219 53.835938 135.371094 54.140625 135.207031 54.421875 C 135.050781 54.691406 134.835938 54.898438 134.5625 55.042969 C 134.269531 55.195312 133.960938 55.269531 133.632812 55.265625 C 133.355469 55.269531 133.09375 55.210938 132.847656 55.082031 C 132.621094 54.964844 132.445312 54.796875 132.320312 54.574219 C 132.195312 54.339844 132.136719 54.089844 132.140625 53.824219 C 132.132812 53.5 132.210938 53.195312 132.375 52.914062 C 132.53125 52.644531 132.746094 52.441406 133.019531 52.296875 C 133.308594 52.144531 133.621094 52.070312 133.949219 52.074219 C 134.226562 52.070312 134.488281 52.132812 134.738281 52.257812 Z M 133.386719 52.863281 C 133.238281 52.953125 133.121094 53.074219 133.035156 53.226562 C 132.945312 53.398438 132.90625 53.582031 132.910156 53.773438 C 132.898438 54.007812 132.96875 54.210938 133.125 54.382812 C 133.277344 54.546875 133.46875 54.625 133.695312 54.617188 C 133.871094 54.617188 134.039062 54.574219 134.195312 54.480469 C 134.34375 54.386719 134.460938 54.265625 134.542969 54.105469 C 134.632812 53.9375 134.671875 53.753906 134.667969 53.5625 C 134.679688 53.328125 134.609375 53.125 134.457031 52.953125 C 134.304688 52.785156 134.113281 52.710938 133.890625 52.71875 C 133.707031 52.722656 133.542969 52.769531 133.386719 52.871094 Z M 133.386719 52.863281 " fill-opacity="1" fill-rule="nonzero"/><path fill="#3376b5" d="M 141.019531 52.339844 C 141.234375 52.539062 141.335938 52.785156 141.324219 53.078125 C 141.320312 53.1875 141.308594 53.292969 141.285156 53.394531 L 140.925781 55.234375 L 140.164062 55.234375 L 140.507812 53.507812 C 140.519531 53.445312 140.523438 53.386719 140.523438 53.324219 C 140.53125 53.160156 140.480469 53.023438 140.359375 52.910156 C 140.230469 52.796875 140.078125 52.746094 139.90625 52.757812 C 139.683594 52.753906 139.488281 52.832031 139.324219 52.988281 C 139.148438 53.152344 139.039062 53.351562 138.992188 53.589844 L 138.664062 55.242188 L 137.902344 55.242188 L 138.242188 53.511719 C 138.253906 53.453125 138.261719 53.390625 138.261719 53.328125 C 138.269531 53.164062 138.214844 53.027344 138.097656 52.914062 C 137.96875 52.800781 137.816406 52.75 137.644531 52.761719 C 137.421875 52.761719 137.226562 52.835938 137.0625 52.992188 C 136.882812 53.152344 136.773438 53.351562 136.730469 53.589844 L 136.394531 55.246094 L 135.636719 55.246094 L 136.25 52.121094 L 137.015625 52.121094 L 136.929688 52.5625 C 137.183594 52.222656 137.519531 52.058594 137.941406 52.078125 C 138.195312 52.066406 138.429688 52.128906 138.648438 52.261719 C 138.839844 52.382812 138.964844 52.550781 139.023438 52.773438 C 139.140625 52.554688 139.308594 52.386719 139.519531 52.261719 C 139.730469 52.136719 139.957031 52.074219 140.203125 52.074219 C 140.507812 52.058594 140.78125 52.148438 141.019531 52.339844 Z M 141.019531 52.339844 " fill-opacity="1" fill-rule="nonzero"/><g clip-path="url(#9595b59e85)"><path fill="#3376b5" d="M 144.632812 52.257812 C 144.832031 52.378906 144.980469 52.542969 145.082031 52.75 C 145.195312 52.976562 145.246094 53.222656 145.242188 53.476562 C 145.246094 53.800781 145.171875 54.101562 145.019531 54.386719 C 144.878906 54.660156 144.675781 54.875 144.417969 55.035156 C 144.15625 55.195312 143.875 55.273438 143.566406 55.273438 C 143.332031 55.28125 143.109375 55.226562 142.90625 55.105469 C 142.71875 54.988281 142.585938 54.824219 142.507812 54.617188 L 142.148438 56.371094 L 141.402344 56.371094 L 142.246094 52.113281 L 143.003906 52.113281 L 142.914062 52.539062 C 143.054688 52.394531 143.214844 52.28125 143.394531 52.203125 C 143.582031 52.121094 143.773438 52.082031 143.972656 52.082031 C 144.210938 52.078125 144.429688 52.136719 144.632812 52.257812 Z M 143.1875 52.847656 C 143.03125 52.945312 142.910156 53.078125 142.828125 53.242188 C 142.734375 53.414062 142.691406 53.59375 142.691406 53.789062 C 142.683594 54.015625 142.753906 54.210938 142.902344 54.378906 C 143.054688 54.535156 143.238281 54.609375 143.453125 54.601562 C 143.640625 54.601562 143.8125 54.554688 143.96875 54.457031 C 144.128906 54.355469 144.253906 54.226562 144.339844 54.058594 C 144.433594 53.890625 144.480469 53.707031 144.480469 53.511719 C 144.488281 53.285156 144.417969 53.085938 144.265625 52.917969 C 144.113281 52.761719 143.925781 52.6875 143.707031 52.695312 C 143.519531 52.695312 143.351562 52.746094 143.195312 52.847656 Z M 143.1875 52.847656 " fill-opacity="1" fill-rule="nonzero"/></g><path fill="#3376b5" d="M 146.046875 55.09375 C 145.851562 54.976562 145.699219 54.808594 145.597656 54.601562 C 145.488281 54.371094 145.433594 54.128906 145.4375 53.871094 C 145.433594 53.550781 145.507812 53.246094 145.660156 52.960938 C 145.804688 52.691406 146.003906 52.476562 146.265625 52.316406 C 146.527344 52.15625 146.8125 52.074219 147.121094 52.078125 C 147.355469 52.070312 147.574219 52.125 147.777344 52.246094 C 147.964844 52.359375 148.097656 52.519531 148.171875 52.726562 L 148.300781 52.109375 L 149.054688 52.109375 L 148.433594 55.234375 L 147.683594 55.234375 L 147.769531 54.808594 C 147.480469 55.117188 147.128906 55.269531 146.707031 55.269531 C 146.472656 55.273438 146.25 55.214844 146.046875 55.09375 Z M 147.492188 54.5 C 147.648438 54.402344 147.769531 54.269531 147.855469 54.105469 C 147.945312 53.933594 147.992188 53.753906 147.988281 53.558594 C 148 53.332031 147.929688 53.136719 147.777344 52.964844 C 147.628906 52.804688 147.441406 52.730469 147.21875 52.742188 C 147.035156 52.738281 146.867188 52.789062 146.710938 52.886719 C 146.554688 52.988281 146.433594 53.121094 146.347656 53.285156 C 146.253906 53.453125 146.207031 53.636719 146.210938 53.832031 C 146.199219 54.054688 146.269531 54.253906 146.421875 54.417969 C 146.578125 54.578125 146.765625 54.652344 146.984375 54.640625 C 147.167969 54.644531 147.335938 54.597656 147.492188 54.5 Z M 147.492188 54.5 " fill-opacity="1" fill-rule="nonzero"/><path fill="#3376b5" d="M 152.339844 52.339844 C 152.550781 52.535156 152.652344 52.777344 152.640625 53.070312 C 152.640625 53.175781 152.628906 53.285156 152.605469 53.390625 L 152.242188 55.230469 L 151.484375 55.230469 L 151.824219 53.5 C 151.835938 53.441406 151.84375 53.378906 151.84375 53.320312 C 151.851562 53.15625 151.796875 53.015625 151.679688 52.902344 C 151.546875 52.792969 151.398438 52.742188 151.226562 52.75 C 151 52.75 150.808594 52.824219 150.640625 52.980469 C 150.464844 53.140625 150.355469 53.34375 150.3125 53.582031 L 149.976562 55.234375 L 149.21875 55.234375 L 149.832031 52.109375 L 150.597656 52.109375 L 150.511719 52.550781 C 150.761719 52.210938 151.101562 52.050781 151.523438 52.066406 C 151.828125 52.050781 152.101562 52.140625 152.339844 52.339844 Z M 152.339844 52.339844 " fill-opacity="1" fill-rule="nonzero"/><g clip-path="url(#6391813d3a)"><path fill="#3376b5" d="M 156.171875 52.109375 L 154.074219 55.65625 C 153.789062 56.15625 153.398438 56.402344 152.90625 56.402344 C 152.765625 56.40625 152.628906 56.382812 152.5 56.328125 C 152.375 56.269531 152.261719 56.195312 152.160156 56.101562 L 152.550781 55.570312 C 152.65625 55.660156 152.773438 55.703125 152.914062 55.703125 C 153.15625 55.691406 153.339844 55.582031 153.472656 55.375 L 153.609375 55.183594 L 152.941406 52.109375 L 153.714844 52.109375 L 154.128906 54.410156 L 155.40625 52.109375 Z M 156.171875 52.109375 " fill-opacity="1" fill-rule="nonzero"/></g></svg>